<svg width="104" height="120" viewBox="0 0 104 120" fill="none" xmlns="http://www.w3.org/2000/svg">
<path fill-rule="evenodd" clip-rule="evenodd" d="M52 3.69504L3.20237 31.8475L3.20237 88.1525L52 116.305L100.798 88.1525V31.8475L52 3.69504ZM104 30L52 0L0 30L0 90L52 120L104 90V30Z" fill="white"/>
<path d="M51.68 9.59961L95.36 34.7996V85.1996L51.68 110.4L8 85.1996L8 34.7996L51.68 9.59961Z" fill="white"/>
<path d="M65.3192 70.1803C69.9699 69.4678 73 72.6297 73 72.6297C71.2303 66.6752 63.8942 68.3237 63.8942 68.3237C63.8942 60.4294 56.769 62.9932 56.769 62.9932C61.8775 64.8342 61.7129 67.6841 61.7129 67.6841C55.4108 62.3172 51.0637 68.6046 51.0637 68.6046C57.6075 66.3423 61.291 69.8579 61.291 69.8579C54.9941 67.4553 52.3704 72.999 52.3704 72.999C55.6578 70.8876 58.4924 70.9916 60.0049 71.5116C59.9586 71.6208 59.9277 71.7404 59.9277 71.8705C59.9277 72.2033 60.1129 72.4789 60.3753 72.6349C56.3317 77.0553 54.0475 82.9215 53.0289 86.1094C52.0051 85.969 50.9608 85.891 49.8805 85.891C48.8155 85.891 47.7815 85.969 46.7732 86.1042C45.7442 83.4207 44.0311 79.8532 41.4177 77.0033C41.6338 76.8733 41.7881 76.6497 41.7881 76.3741C41.7881 76.2701 41.7624 76.1713 41.7264 76.0777C42.9765 75.646 45.3172 75.5628 48.0284 77.305C48.0284 77.305 45.8626 72.7285 40.6614 74.7151C40.6614 74.7151 43.7019 71.8133 49.1088 73.6802C49.1088 73.6802 45.523 68.4901 40.3219 72.9158C40.3219 72.9158 40.183 70.5651 44.4015 69.0414C44.4015 69.0414 38.5162 66.93 38.5162 73.4462C38.5162 73.4462 32.4559 72.0837 31 77.0033C31 77.0033 33.5002 74.3927 37.3432 74.9803C37.3432 74.9803 32.5845 75.4952 32.7337 81.3665C32.7337 81.3665 35.1208 77.0657 37.7702 76.5821C37.7702 76.5821 33.8552 77.9238 36.5612 84.7781C36.5612 84.7781 36.7156 78.0122 39.2673 77.2582C39.329 77.7522 39.7406 78.1318 40.2447 78.1318C40.4608 78.1318 40.6563 78.059 40.8158 77.9446C41.7984 79.4164 43.5167 82.3754 44.6793 86.489C39.2621 87.7423 34.987 90.899 33.3099 94.9034H66.4459C64.8459 91.0758 60.8692 88.0232 55.7967 86.6658C57.1291 80.342 59.7168 75.8436 61.1007 73.7686C61.2962 73.909 61.538 73.9975 61.7952 73.9975C62.4074 73.9975 62.9064 73.5346 62.9836 72.9366C66.0755 73.8518 66.2607 82.0478 66.2607 82.0478C69.5377 73.7478 64.7996 72.1201 64.7996 72.1201C68.0098 72.7025 70.901 77.9134 70.901 77.9134C71.0811 70.7992 65.3192 70.1803 65.3192 70.1803Z" fill="#50512F"/>
<rect x="3.96484" y="53.1416" width="96.0711" height="4.8" fill="#595937"/>
<ellipse cx="52.0032" cy="21.0408" rx="3.20237" ry="3.2" fill="#4D4F2F"/>
<path d="M18.3358 47.3174H15.8008L19.7608 36.2174H22.1308L26.0758 47.3174H23.4958L22.7158 44.9774H19.1308L18.3358 47.3174ZM20.6308 40.5674L19.8358 42.9374H22.0258L21.2308 40.5674C21.0608 40.0474 20.9608 39.6874 20.9308 39.4874C20.8908 39.7474 20.7908 40.1074 20.6308 40.5674ZM26.7677 47.3174V36.2174H31.3877C32.5077 36.2174 33.3827 36.4924 34.0127 37.0424C34.6527 37.5924 34.9727 38.3424 34.9727 39.2924C34.9727 40.5024 34.4577 41.3324 33.4277 41.7824C34.5477 42.1524 35.1077 42.9774 35.1077 44.2574C35.1077 45.2374 34.7877 45.9924 34.1477 46.5224C33.5077 47.0524 32.5877 47.3174 31.3877 47.3174H26.7677ZM31.1327 38.3474H29.1977V40.7624H31.1327C31.5727 40.7624 31.9077 40.6574 32.1377 40.4474C32.3677 40.2374 32.4827 39.9324 32.4827 39.5324C32.4827 38.7424 32.0327 38.3474 31.1327 38.3474ZM31.2527 42.8024H29.1977V45.1874H31.2527C32.1627 45.1874 32.6177 44.7774 32.6177 43.9574C32.6177 43.1874 32.1627 42.8024 31.2527 42.8024ZM44.8883 37.6124C45.8983 38.6724 46.4033 40.0524 46.4033 41.7524C46.4033 43.4524 45.8933 44.8374 44.8733 45.9074C43.8633 46.9674 42.5533 47.4974 40.9433 47.4974C39.3433 47.4974 38.0383 46.9674 37.0283 45.9074C36.0283 44.8474 35.5283 43.4674 35.5283 41.7674C35.5283 40.0674 36.0333 38.6874 37.0433 37.6274C38.0533 36.5574 39.3583 36.0224 40.9583 36.0224C42.5683 36.0224 43.8783 36.5524 44.8883 37.6124ZM43.8383 41.7524C43.8383 40.6924 43.5833 39.8624 43.0733 39.2624C42.5633 38.6624 41.8633 38.3624 40.9733 38.3624C40.0733 38.3624 39.3683 38.6624 38.8583 39.2624C38.3483 39.8624 38.0933 40.6924 38.0933 41.7524C38.0933 42.8124 38.3483 43.6474 38.8583 44.2574C39.3683 44.8574 40.0733 45.1574 40.9733 45.1574C41.8633 45.1574 42.5633 44.8524 43.0733 44.2424C43.5833 43.6324 43.8383 42.8024 43.8383 41.7524ZM47.4214 43.1474V36.2174H49.8514V42.9824C49.8514 43.6824 50.0364 44.2174 50.4064 44.5874C50.7764 44.9574 51.3014 45.1424 51.9814 45.1424C52.6714 45.1424 53.2014 44.9524 53.5714 44.5724C53.9514 44.1924 54.1414 43.6624 54.1414 42.9824V36.2174H56.5714V43.1474C56.5714 44.4674 56.1514 45.5224 55.3114 46.3124C54.4814 47.1024 53.3714 47.4974 51.9814 47.4974C50.5914 47.4974 49.4814 47.1074 48.6514 46.3274C47.8314 45.5374 47.4214 44.4774 47.4214 43.1474ZM57.35 38.4674V36.2174H66.08V38.4674H62.93V47.3174H60.5V38.4674H57.35ZM70.2308 43.1474V36.2174H72.6608V42.9824C72.6608 43.6824 72.8458 44.2174 73.2158 44.5874C73.5858 44.9574 74.1108 45.1424 74.7908 45.1424C75.4808 45.1424 76.0108 44.9524 76.3808 44.5724C76.7608 44.1924 76.9508 43.6624 76.9508 42.9824V36.2174H79.3808V43.1474C79.3808 44.4674 78.9608 45.5224 78.1208 46.3124C77.2908 47.1024 76.1808 47.4974 74.7908 47.4974C73.4008 47.4974 72.2908 47.1074 71.4608 46.3274C70.6408 45.5374 70.2308 44.4774 70.2308 43.1474ZM80.3994 39.4424C80.3994 38.4424 80.7794 37.6224 81.5394 36.9824C82.3094 36.3324 83.2894 36.0074 84.4794 36.0074C85.6694 36.0074 86.6144 36.3174 87.3144 36.9374C88.0144 37.5474 88.3644 38.3774 88.3644 39.4274H85.9494C85.9494 39.0374 85.8144 38.7324 85.5444 38.5124C85.2744 38.2824 84.9094 38.1674 84.4494 38.1674C83.9494 38.1674 83.5544 38.2724 83.2644 38.4824C82.9744 38.6924 82.8294 38.9824 82.8294 39.3524C82.8294 39.6824 82.9194 39.9424 83.0994 40.1324C83.2794 40.3124 83.5644 40.4424 83.9544 40.5224L85.6194 40.8674C86.6194 41.0674 87.3544 41.4174 87.8244 41.9174C88.3044 42.4174 88.5444 43.1024 88.5444 43.9724C88.5444 45.0424 88.1594 45.9024 87.3894 46.5524C86.6194 47.1924 85.5944 47.5124 84.3144 47.5124C83.0744 47.5124 82.0844 47.2024 81.3444 46.5824C80.6044 45.9624 80.2344 45.1324 80.2344 44.0924H82.6494C82.6494 44.5024 82.7944 44.8174 83.0844 45.0374C83.3744 45.2474 83.7894 45.3524 84.3294 45.3524C84.8794 45.3524 85.3144 45.2524 85.6344 45.0524C85.9544 44.8424 86.1144 44.5624 86.1144 44.2124C86.1144 43.9024 86.0344 43.6624 85.8744 43.4924C85.7244 43.3224 85.4644 43.2024 85.0944 43.1324L83.3994 42.7874C81.3994 42.3774 80.3994 41.2624 80.3994 39.4424Z" fill="#4D4E2C"/>
</svg>
