
<svg xmlns="http://www.w3.org/2000/svg" width="180" height="180" viewBox="0 0 180 180" fill="none">
  <path d="M159.68 95.0517V50.9267C159.68 50.0614 159.22 49.2605 158.474 48.8287L91.1311 9.75381C90.3855 9.32034 89.4651 9.32034 88.7195 9.75381L21.3762 48.8271C20.6306 49.2605 20.1704 50.0598 20.1704 50.9251V95.0501C20.1704 96.3892 19.0913 97.4737 17.7588 97.4737H12.5444C11.2119 97.4737 10.1328 98.5581 10.1328 99.8972V133.384C10.1328 134.845 11.4092 135.973 12.8523 135.788L15.1292 135.493C18.6487 135.039 22.1779 134.62 25.7135 134.23C26.2234 134.173 26.7397 134.283 27.1839 134.541L88.7195 170.245C89.4651 170.678 90.3855 170.678 91.1311 170.245L152.689 134.528C153.133 134.27 153.65 134.16 154.159 134.217C157.735 134.61 161.304 135.034 164.864 135.495L167.141 135.79C168.583 135.976 169.86 134.847 169.86 133.385V99.8988C169.86 98.5597 168.781 97.4753 167.449 97.4753H162.092C160.759 97.4753 159.68 96.3908 159.68 95.0517Z" fill="#EEEEEE"/>
  <path d="M24.6055 114.382V127.901L89.9284 165.802L155.251 127.901V114.382H24.6055Z" fill="black"/>
  <path d="M61.1328 146.345L89.926 163.052L118.721 146.345L89.926 157.745L61.1328 146.345Z" fill="#EDAE4B"/>
  <path d="M155.251 114.382H24.6055V127.901L48.0752 141.518H131.782L155.251 127.901V114.382Z" fill="black"/>
  <path d="M150.95 49.3558L129.02 36.6322L107.091 23.9085L90.3542 14.1982L73.6158 23.9102L51.6854 36.6338L29.7566 49.3574L25.0312 52.0984V59.166V80.2979H155.677V59.166V52.0984L150.95 49.3558Z" fill="#EDAE4B"/>
  <path d="M37.9157 45.4659H70.7319C70.7319 45.4659 65.0973 44.0301 60.3816 43.3501C63.263 42.4429 62.2095 36.2455 57.6221 40.0999C56.9454 35.791 51.8304 35.414 49.9496 38.5127C48.2948 37.6055 37.9141 45.4675 37.9141 45.4675L37.9157 45.4659Z" fill="#EEEEEE"/>
  <path d="M75.4859 71.0891C81.9567 71.0891 87.2023 65.8174 87.2023 59.3146C87.2023 52.8117 81.9567 47.54 75.4859 47.54C69.0151 47.54 63.7695 52.8117 63.7695 59.3146C63.7695 65.8174 69.0151 71.0891 75.4859 71.0891Z" fill="#EEEEEE"/>
  <path d="M92.4123 75.4877H84.5586L84.8184 74.7771L88.3636 64.9927V64.9895L88.7388 63.9533L88.8607 63.6182L91.4069 72.1344L91.4807 72.3761L91.7212 73.1754L92.0371 74.2309L92.4123 75.4877Z" fill="#1F2B44"/>
  <path d="M91.8811 74.8287L90.9703 74.8593L88.8281 63.9533L88.95 63.6182L91.4963 72.1344L91.57 72.3761L91.8105 73.1754L91.8811 74.8287Z" fill="#19212F"/>
  <path d="M88.3616 64.9922L86.4872 72.959L85.5604 74.8588L84.8164 74.7766L88.3616 64.9922Z" fill="#F2DFC4"/>
  <path d="M102.326 75.4876H90.3516L91.4355 72.4937L91.4788 72.376L96.9097 57.3916L97.0732 57.9379L97.1358 58.1457L99.0984 64.7041L99.116 64.7605C99.116 64.7605 99.116 64.7654 99.1176 64.767L102.326 75.4876Z" fill="#1F2B44"/>
  <path d="M100.034 69.5525L99.5484 70.8223L96.8594 58.234L97.0758 57.9375L97.1384 58.1454L99.101 64.7038L99.1186 64.7602C99.1186 64.7602 99.1186 64.765 99.1202 64.7666C99.5115 66.8324 100.034 69.5525 100.034 69.5525Z" fill="#19212F"/>
  <path d="M97.1347 58.1454L93.4596 70.7449L92.0341 74.2304L91.6589 75.1457C91.3286 74.9942 90.9983 74.8443 90.668 74.6929C90.9373 73.9194 91.2067 73.1475 91.4777 72.3741L96.9086 57.3896L97.1347 58.1454Z" fill="#F2DFC4"/>
  <path d="M111.074 75.4879H95.1914L99.1006 64.7044L103.892 51.4893L109.307 69.5821L110.984 75.1881L111.074 75.4879Z" fill="#1F2B44"/>
  <path d="M117.009 75.4881H107.164L107.227 75.3173L109.305 69.5823L110.182 67.1604L112.556 60.6133L117.009 75.4881Z" fill="#1F2B44"/>
  <path d="M131.198 75.4882H119.453L125.886 57.7402L131.198 75.4882Z" fill="#1F2B44"/>
  <path d="M136.018 75.4879H126.375L131.431 61.5348L131.655 60.916L136.018 75.4879Z" fill="#1F2B44"/>
  <path d="M145.521 75.4873H131.684L139.263 54.5762L145.335 74.8605L145.521 75.4873Z" fill="#1F2B44"/>
  <path d="M152.35 75.4872H140.539L143.267 67.9603L146.618 58.7173L147.009 57.6377L149.101 64.6328L149.64 66.4392L150.87 70.5466L152.35 75.4872Z" fill="#1F2B44"/>
  <path d="M155.315 61.388V75.4877H145.168L145.36 74.956L146.941 70.5988L149.103 64.6334L149.642 66.4397L149.733 66.2141L149.374 63.8824L152.467 55.3549L153.038 53.7773L155.315 61.388Z" fill="#1F2B44"/>
  <path d="M112.143 75.1479L110.984 75.1881L107.228 75.3171L102.328 75.4879L103.443 62.3098L103.891 51.4893L109.306 69.5821L110.183 67.1601L112.143 75.1479Z" fill="#19212F"/>
  <path d="M131.196 75.4882C131.196 75.4882 124.222 75.7106 124.211 75.6042C124.211 75.5978 124.213 75.5575 124.221 75.4882C124.33 74.3667 125.345 65.6007 125.322 65.5265C125.3 65.4492 125.883 57.7402 125.883 57.7402L131.196 75.4882Z" fill="#19212F"/>
  <path d="M136.017 75.4879L134.853 75.0512L131.195 74.7741L131.688 69.7546L132.031 65.9742L131.429 61.5348L131.654 60.916L136.017 75.4879Z" fill="#19212F"/>
  <path d="M145.336 74.8605C142.759 74.6607 140.182 74.4609 137.605 74.2627C138.253 70.9577 138.903 67.6543 139.55 64.3493V60.6141L139.263 54.5762L145.334 74.8605H145.336Z" fill="#19212F"/>
  <path d="M149.64 66.4392L147.04 72.9251L146.939 70.5982L146.617 63.3018V58.7173L147.008 57.6377L149.101 64.6328L149.64 66.4392Z" fill="#19212F"/>
  <path d="M155.314 61.388V75.4877H149.914L150.871 70.5472L153.05 59.3141L152.467 55.3549L153.038 53.7773L155.314 61.388Z" fill="#19212F"/>
  <path d="M64.5604 75.4861H53.9375L54.1892 74.7932L54.2037 74.7529L56.7211 67.8094V67.8078L56.9552 67.1664V67.1648L59.5432 60.0247L59.7532 59.4462L59.7564 59.4365L59.7612 59.4542L59.9456 60.0666L63.8436 73.0932L64.5604 75.4861Z" fill="#1F2B44"/>
  <path d="M59.0168 75.4857H45.6953L48.1085 68.829L48.2865 68.3392V68.3376L49.5901 64.7361L49.8627 63.9868L52.9846 55.3706L52.991 55.3545L56.695 67.7252L56.719 67.8074V67.809L59.0168 75.4857Z" fill="#1F2B44"/>
  <path d="M59.9439 60.0667L59.5414 61.1576L58.0246 70.0864L57.598 74.7933H54.1875L54.2019 74.753L56.7193 67.8095V67.8078L56.9535 67.1665V67.1649L59.5414 60.0248L59.7515 59.4463L59.7595 59.4543L59.9439 60.0667Z" fill="#1C2533"/>
  <path d="M63.8434 73.0932L62.9198 73.8505L59.543 61.1575V60.0247L59.7562 59.4365L63.8434 73.0932Z" fill="#F2DFC4"/>
  <path d="M44.1903 75.4858H33.0977L35.5349 68.7614L35.6487 68.4488L38.8861 59.5184L38.9166 59.4346L39.1731 58.7256L42.4923 69.8136L42.8162 70.8949L44.1903 75.4858Z" fill="#1F2B44"/>
  <path d="M39.8985 74.6317L35.7087 74.0548L35.6445 68.4488L38.8819 59.5184L38.9124 59.4346L39.0695 59.6892L38.6398 63.5839L39.8985 74.6317Z" fill="#19212F"/>
  <path d="M52.8094 75.4857H41.1523L42.1353 72.7753V72.7737L42.8167 70.8948L47.5373 57.873L47.6704 58.3162L49.5913 64.736L52.8094 75.4857Z" fill="#1F2B44"/>
  <path d="M52.9822 55.3711L52.9373 56.3025L51.196 75.027H46.5508L48.1061 68.8295L48.2841 68.3397V68.338L49.5877 64.7366L49.8603 63.9873L52.9822 55.3711Z" fill="#1C2533"/>
  <path d="M47.6712 58.3162L47.5381 58.4967L46.1367 67.7767L45.8833 75.2133L41.4883 74.8572L42.1361 72.7753V72.7737L42.8175 70.8948L47.5381 57.873L47.6712 58.3162Z" fill="#19212F"/>
  <path d="M37.5477 75.4857H25.8906L28.9292 67.1064V67.1048L29.1007 66.6294L29.2258 66.2846V66.283L29.4551 65.6545V65.6513L32.0399 58.5241L32.0687 58.4435L32.274 57.873L34.1259 64.0576L35.5338 68.7613L37.5477 75.4857Z" fill="#1F2B44"/>
  <path d="M31.9821 75.4864H24.2695V59.4723L25.8682 55.0635L26.1247 55.9207L29.2274 66.2837V66.2853L31.9821 75.4864Z" fill="#1F2B44"/>
  <path d="M32.0395 62.2134L31.4847 66.822L31.9818 75.4865L29.1709 75.1965L28.5664 68.6961L29.1004 66.6303L29.2254 66.2854V66.2838L29.4547 65.6554V65.6521L32.0395 58.5249L32.0683 58.4443L32.2479 59.0824L32.0395 62.2134Z" fill="#19212F"/>
  <path d="M42.8168 70.8949C42.5891 71.5217 42.3614 72.1486 42.1353 72.7754C41.4041 70.6016 40.6746 68.4278 39.9434 66.2524C39.5906 64.0078 39.2395 61.7615 38.8867 59.5168L39.1737 58.7256C40.3875 62.7815 41.603 66.839 42.8168 70.8949Z" fill="#F2DFC4"/>
  <path d="M35.2107 67.6307C34.9878 68.2495 34.7649 68.8683 34.542 69.4854C33.7083 65.8308 32.8745 62.1777 32.0391 58.5231L32.2748 57.8721C33.2529 61.1239 34.2326 64.3773 35.2107 67.6291V67.6307Z" fill="#F2DFC4"/>
  <path d="M29.459 65.6528L29.2297 66.2845L28.9315 67.103L26.111 57.1349L25.8945 56.0521L26.127 55.9199L29.2297 66.2828L29.459 65.6528Z" fill="#F2DFC4"/>
  <path d="M155.253 74.627H24.6055V114.383H155.253V74.627Z" fill="#344C68"/>
  <path d="M72.1482 77.2823C71.0114 76.9069 69.8938 76.5217 68.7954 76.127C67.8718 76.1511 66.9466 76.1737 66.023 76.1979L76.0141 80.8951C72.618 82.2551 69.2219 83.6151 65.8242 84.9736C67.681 87.2021 69.5362 89.4323 71.393 91.6609L74.9222 92.7373C72.1787 94.9514 69.4352 97.1654 66.6933 99.3795L78.2397 102.28L81.8138 92.0605C84.142 88.5911 86.4686 85.1218 88.7968 81.6525C83.4926 80.6067 77.9174 79.187 72.1482 77.2823Z" fill="#F2DFC4"/>
  <path d="M63.1915 74.7581C51.504 75.5799 39.8165 76.4033 28.1289 77.2251C28.8537 76.3147 29.5784 75.4026 30.3048 74.4922C41.072 74.5147 51.8407 74.5389 62.6079 74.5615C62.8019 74.6275 62.9959 74.692 63.1899 74.7581H63.1915Z" fill="#131824"/>
  <path d="M106.829 77.2764L105.259 79.6661L86.5887 77.5954L80.5469 74.8512L80.7938 74.624H84.8714C92.1911 75.5071 99.5109 76.3917 106.829 77.2748V77.2764Z" fill="#F2DFC4"/>
  <path d="M69.1719 74.7705C70.4979 75.1524 71.8256 75.5359 73.1516 75.9178C78.326 76.1595 83.4987 76.4012 88.673 76.643C86.4987 76.0451 84.3229 75.4473 82.1486 74.8495L69.1719 74.7705Z" fill="#1D344F"/>
  <path d="M155.253 78.3178V104.655L81.3177 107.262C79.222 105.104 77.1279 102.945 75.0306 100.787C74.9777 100.731 74.9232 100.676 74.8687 100.62C74.8141 100.557 74.7596 100.496 74.7051 100.434C74.6474 100.175 74.5897 99.917 74.5319 99.6592C74.5271 99.3353 74.5239 99.0114 74.5191 98.6859C74.5448 98.6037 74.5688 98.5199 74.5945 98.4362C75.9702 96.8215 77.3476 95.2053 78.7234 93.5907C78.4844 93.415 78.2391 93.2394 77.9874 93.0654C77.2642 92.5642 76.5539 92.1098 75.8628 91.6989C75.6399 91.5571 75.4186 91.4169 75.1958 91.2751H75.1942C74.7452 90.9883 74.2946 90.7014 73.8457 90.4162C73.6805 90.0295 73.5153 89.6427 73.3502 89.256C76.5779 87.896 79.8073 86.5376 83.035 85.1808C83.0671 85.1663 83.0976 85.1534 83.1296 85.1405C83.67 84.8649 84.212 84.5894 84.7523 84.3138C85.1131 84.1301 85.4723 83.948 85.833 83.7643C85.9645 83.6467 86.0944 83.5291 86.2259 83.4115C86.4616 83.1987 86.6989 82.986 86.9362 82.7733C86.6139 82.5123 86.2916 82.2512 85.9677 81.9886C84.8982 81.7082 83.8271 81.4262 82.756 81.1458C80.6315 80.5045 78.5053 79.8648 76.3807 79.2234C75.7473 78.9591 75.114 78.6965 74.479 78.4322H74.4774C74.4518 78.4193 74.4229 78.408 74.3892 78.3952C73.6821 78.1003 72.9734 77.8054 72.2647 77.5105C72.2647 77.5105 72.2598 77.5089 72.2582 77.5089C71.1519 77.048 70.0439 76.5872 68.9375 76.1263C69.1187 76.1118 69.3015 76.0989 69.4827 76.0844C71.7804 75.941 72.6896 75.8975 72.8403 75.9039C72.8467 75.9039 72.9766 75.912 73.153 75.9168C73.2203 75.92 73.2877 75.9233 73.3534 75.9249C78.3209 76.1376 85.0794 76.476 92.4248 76.8208C92.4729 76.824 92.5194 76.8257 92.5675 76.8289C102.369 77.3187 106.283 77.5073 107.377 77.554C107.457 77.5572 107.953 77.5782 108.628 77.6072C110.247 77.6765 111.216 77.728 111.588 77.7441C112.195 77.7715 112.979 77.7812 113.959 77.7377C118.141 77.8843 122.142 78.002 125.74 78.0632C129.027 78.1196 131.977 78.1309 134.427 78.0825C134.61 78.0793 134.788 78.0745 134.964 78.0697C136.664 78.0294 138.099 77.9569 139.209 77.8457C142.095 77.5588 145.207 77.5588 148.193 77.7087H148.198C150.71 77.8344 153.131 78.0648 155.253 78.3178Z" fill="#869AD9"/>
  <path d="M105.669 91.2731L104.979 93.5903L83.0312 85.1804C83.0633 85.1659 83.0938 85.153 83.1258 85.1401C83.6662 84.8646 84.2082 84.589 84.7485 84.3135L105.669 91.2731Z" fill="#C5D0ED"/>
  <path d="M128.569 92.2403L130.054 93.8517C122.514 92.2145 114.976 90.5774 107.437 88.9402L86.0775 83.4114C86.3132 83.1987 86.5505 82.986 86.7878 82.7733C86.4655 82.5123 86.1432 82.2512 85.8193 81.9886C84.7498 81.7082 83.6787 81.4262 82.6076 81.1458C80.483 80.5045 78.3568 79.8648 76.2323 79.2234C75.5989 78.9591 74.9655 78.6965 74.3306 78.4322H74.329C74.3033 78.4193 74.2745 78.408 74.2408 78.3952C73.5337 78.1003 72.8249 77.8054 72.1162 77.5105C72.1162 77.5105 72.1114 77.5089 72.1098 77.5089C71.0034 77.048 69.8954 76.5872 68.7891 76.1263C68.9703 76.1118 69.153 76.0989 69.3342 76.0844C71.632 75.941 72.5411 75.8975 72.6919 75.9039C72.6983 75.9039 72.8282 75.912 73.0045 75.9168C73.0719 75.92 73.1392 75.9233 73.205 75.9249C78.1724 76.1376 84.931 76.476 92.2764 76.8208C92.3245 76.824 92.371 76.8257 92.4191 76.8289C102.221 77.3187 106.135 77.5073 107.229 77.554C107.309 77.5572 107.804 77.5782 108.479 77.6072C110.099 77.6765 111.067 77.728 111.439 77.7441C112.047 77.7715 112.831 77.7812 113.811 77.7377C117.993 77.8843 121.993 78.002 125.591 78.0632C128.878 78.1196 131.829 78.1309 134.279 78.0825C134.462 78.0793 134.64 78.0745 134.816 78.0697L135.034 84.1785L119.978 87.2998C122.841 88.9466 125.705 90.5935 128.567 92.2403H128.569Z" fill="#C5D0ED"/>
  <path d="M148.815 78.2727L142.305 78.313L139.853 78.8109C129.745 79.449 121.009 79.4829 114.055 79.3121C111.587 79.0639 109.12 78.8158 106.652 78.566C101.072 78.2357 95.492 77.9053 89.912 77.5766C76.9978 76.7532 72.2067 76.4422 71.8267 76.4067H71.8235C71.6503 76.3922 71.498 76.3825 71.3649 76.3729C71.1549 76.3568 70.9448 76.3406 70.7347 76.3245C70.6818 76.3229 70.1014 76.2971 69.7518 76.2891C69.6171 76.2859 69.4985 76.2859 69.4985 76.2859C69.3686 76.2859 69.258 76.2859 69.1794 76.2859C69.0511 76.2327 68.9212 76.1779 68.793 76.1247C68.9742 76.1102 69.157 76.0973 69.3381 76.0828C71.4018 75.9185 72.0624 75.9023 72.6958 75.9023C72.8561 75.9023 72.9844 75.904 73.0453 75.9056C73.188 75.9104 73.3836 75.9185 73.5376 75.9233C78.5852 76.1102 83.6281 76.3954 88.6725 76.642C91.1595 76.7628 90.8661 76.7435 92.423 76.8192C97.0458 77.0448 105.494 77.4799 107.232 77.5524C107.3 77.5556 107.8 77.5766 108.483 77.6056C110.103 77.6749 111.071 77.7265 111.443 77.7426C112.051 77.77 112.835 77.7796 113.815 77.7361C116.488 77.6169 119.622 77.9827 125.595 78.0616C126.259 78.0697 127.17 78.0745 128.99 78.0842C131.741 78.0987 133.139 78.1051 134.283 78.081C136.383 78.0374 137.565 77.9923 139.064 77.8441C141.95 77.5573 145.063 77.5573 148.048 77.7071C148.149 77.8167 148.268 77.923 148.401 78.0213C148.544 78.1261 148.683 78.2066 148.815 78.2711V78.2727Z" fill="#131B28"/>
  <path d="M78.3385 92.977C78.3062 92.9483 78.2692 92.9197 78.2305 92.8926C78.2595 92.9117 78.2966 92.9404 78.3385 92.977Z" fill="#EDAE4B"/>
  <path d="M110.022 110.034C109.649 108.365 109.392 107.346 109.392 107.346C110.39 101.442 111.687 92.9935 111.983 91.047C112.019 90.8117 112.224 90.6425 112.461 90.6489L113.406 90.6796C113.653 90.6876 113.85 90.8874 113.858 91.134C113.93 93.5495 114.28 105.161 114.392 107.428C114.413 107.833 114.454 108.759 114.512 110.031H121.133C121.978 109.037 122.824 108.044 123.669 107.05C122.355 99.3425 121.041 91.6335 119.727 83.9262C117.148 83.6474 114.275 83.4879 111.153 83.5523C109.437 83.5878 107.806 83.6877 106.27 83.8327C104.373 91.6142 102.475 99.3956 100.578 107.175C101.401 108.126 102.222 109.079 103.044 110.029H110.022V110.034Z" fill="black"/>
  <path d="M103.688 81.621C103.922 81.8788 104.347 82.2833 104.993 82.5781C105.766 82.931 106.465 82.9488 106.829 82.9326L105.544 81.4679L103.888 81.2197C103.822 81.3535 103.755 81.4888 103.689 81.6226L103.688 81.621Z" fill="#D66B2E"/>
  <path d="M121.752 80.5943C121.535 81.2694 120.132 82.4345 119.491 82.4651C118.849 82.4957 118.598 81.9221 118.598 81.9221L119.791 80.3799L121.429 80.0303L121.752 80.5943Z" fill="#002238"/>
  <path d="M115.301 63.0619C113.852 63.0394 112.405 63.0152 110.956 62.991C110.63 62.9878 110.303 62.9813 109.978 62.9749V62.9491C109.981 62.7461 109.987 62.5398 109.991 62.3368C110.018 61.0477 110.042 59.7569 110.069 58.4678C109.502 59.0447 108.932 59.6232 108.365 60.2001C108.26 60.1614 108.161 60.1163 108.062 60.0679H108.06C107.207 59.6474 106.649 59.0753 106.333 58.7337C106.231 58.6225 106.083 58.4565 105.915 58.2406C106.17 57.3495 106.425 56.46 106.679 55.5689L105.434 54.3845L107.419 52.2446L107.071 50.2497L107.682 49.9773L107.908 49.8774L109.226 49.286L109.808 49.1958L110.727 49.0508L114.346 50.8829L115.247 53.7722C114.601 54.6681 113.956 55.5673 113.31 56.4632C113.499 57.4494 113.749 58.521 114.087 59.6619C114.461 60.9204 114.88 62.0564 115.301 63.0619Z" fill="#002238"/>
  <path d="M111.557 54.1797C111.575 54.3538 111.626 54.8614 111.251 55.2223C110.937 55.5253 110.533 55.5253 110.436 55.522L110.146 55.4108L109.809 57.7377L108.062 60.0694H108.06C107.207 59.6488 106.649 59.0768 106.333 58.7352C106.231 58.624 106.083 58.458 105.915 58.2421C106.17 57.351 106.425 56.4615 106.679 55.5704L105.434 54.386L107.419 52.2461L107.071 50.2511L107.682 49.9788L107.908 49.8789L108.446 50.003L110.367 51.7884L110.781 52.5361L110.488 53.7833C110.703 53.5029 111.01 53.3805 111.232 53.4691C111.498 53.5755 111.535 53.9493 111.559 54.1797H111.557Z" fill="#D66B2E"/>
  <path d="M108.239 49.8797C108.177 51.1689 108.303 51.4605 108.43 51.4911C108.563 51.5234 108.744 51.2784 108.832 51.1592C109.057 50.8563 109.092 50.5372 109.099 50.397C109.079 50.8208 109.129 51.4525 109.52 52.0052C109.641 52.1744 109.868 52.4951 110.09 52.458C110.332 52.4161 110.508 51.9552 110.527 51.2849L108.892 49.6719L108.239 49.883V49.8797Z" fill="#002238"/>
  <path d="M121.029 84.6402C121.002 84.6724 120.977 84.7046 120.951 84.7385C119.21 84.7965 117.438 84.8352 115.635 84.8529C112.313 84.8851 109.089 84.8416 105.968 84.7385C105.893 84.6982 105.818 84.6563 105.742 84.616C105.638 84.4565 105.537 84.2986 105.434 84.139C105.558 84.0117 105.683 83.8828 105.808 83.7555L105.308 82.9385L105.498 82.0652L105.534 81.9072L105.68 81.2353L106.379 78.0302L106.491 77.5113L106.837 75.9241C106.837 75.9241 106.741 75.6743 106.573 75.2409C106.533 75.1377 106.491 75.0249 106.443 74.9025C106.438 74.8928 106.435 74.8831 106.432 74.8735C106.089 73.9711 105.556 72.5659 104.982 70.9932C104.936 70.8643 104.888 70.7338 104.839 70.6033C104.03 71.9681 103.036 73.3571 101.809 74.6978C101.669 74.8509 101.53 74.9992 101.389 75.1458C101.495 75.3472 101.612 75.5551 101.74 75.7678C102.037 76.2561 102.344 76.6831 102.643 77.0521C101.463 77.7966 101.044 79.358 99.726 79.7673C99.4711 79.4756 99.2017 79.1759 98.9371 78.8875C98.9195 78.8681 98.9034 78.8504 98.8858 78.8311C98.1113 77.9851 97.3978 77.2342 97.2695 77.0311C97.2551 77.007 97.2487 76.9909 97.2503 76.9828C97.2792 76.87 97.1878 76.7846 97.0755 76.7169C97.0643 76.6992 97.0547 76.6831 97.0434 76.6654C96.9969 76.5735 96.9504 76.4849 96.9023 76.393C97.0162 76.1997 96.9104 75.771 97.1012 75.5519C97.3321 75.286 96.7083 75.1216 97.1012 74.6269C97.4972 74.1306 102.287 65.6127 102.147 65.5563C102.178 65.4097 102.21 65.2631 102.239 65.1164C102.256 65.0923 102.272 65.0713 102.287 65.052C102.388 64.9247 102.218 64.5718 102.546 64.2978C102.583 64.2672 102.627 64.2366 102.676 64.2092C102.798 64.1883 102.933 64.1593 103.077 64.127C103.173 64.1045 103.274 64.0803 103.38 64.0545C103.488 64.0271 103.598 63.9981 103.712 63.9675C103.77 63.953 103.829 63.9369 103.889 63.9208C103.948 63.9047 104.009 63.8885 104.07 63.8708C104.317 63.8031 104.58 63.729 104.854 63.6501C104.992 63.6098 105.134 63.5695 105.279 63.5276C105.434 63.4841 105.593 63.4374 105.755 63.3922C105.893 63.352 106.034 63.3133 106.178 63.2714C106.496 63.1828 106.824 63.0925 107.16 63.0007C107.288 62.9668 107.418 62.933 107.549 62.8991C107.673 62.8669 107.796 62.8363 107.92 62.8041C107.993 62.7864 108.067 62.767 108.141 62.7493C108.397 62.6864 108.657 62.6236 108.919 62.564C109.09 62.5253 109.263 62.4882 109.437 62.4512C109.621 62.4125 109.807 62.3738 109.991 62.3384C110.009 62.3352 110.025 62.3335 110.041 62.3287C110.795 62.1837 111.551 62.0693 112.286 62.008C113.517 61.9033 114.685 61.9565 115.716 62.0789C117.568 62.2981 118.971 62.7332 119.495 62.8444C121.172 63.1956 119.363 75.0894 119.363 75.9241C119.363 76.7588 120.566 83.7023 121.029 84.6402Z" fill="#002238"/>
  <path d="M106.156 77.3795C106.156 77.3795 106.172 77.3779 106.178 77.3779L106.149 77.5367C106.12 77.4437 106.122 77.3859 106.156 77.3811V77.3795Z" fill="#00646A"/>
  <path d="M106.763 81.5293C106.487 81.8016 106.213 82.0739 105.937 82.3462L105.418 82.4284L105.468 82.1368L105.489 81.9869C105.482 81.9531 105.476 81.9176 105.469 81.8838C105.505 81.8 105.54 81.7162 105.575 81.6324L105.679 81.2344L106.378 78.0293C106.683 78.5353 107.251 79.1895 108.011 79.4022C107.595 80.1112 107.18 80.8202 106.765 81.5276L106.763 81.5293Z" fill="#5DAAAC"/>
  <path d="M107.482 77.3324C107.442 77.3808 107.285 77.5548 107.014 77.6015C106.749 77.6482 106.547 77.5419 106.491 77.5097L106.837 75.9224C106.837 75.9224 106.741 75.6727 106.573 75.2392L106.576 75.2183C106.576 75.2183 106.528 75.1055 106.441 74.9024C106.438 74.8928 106.433 74.8831 106.43 74.8734C106.087 73.971 105.555 72.5659 104.98 70.9932L106.48 72.3564L108.094 73.934C107.889 75.0668 107.684 76.1996 107.48 77.3324H107.482Z" fill="#5DAAAC"/>
  <path d="M125.78 77.2393C123.312 79.2584 121.749 80.5926 121.749 80.5926L121.412 80.0447L120.238 81.2468C120.238 81.2468 119.974 80.8311 119.515 80.4105C119.103 80.251 118.143 80.1124 118.481 79.8401C118.93 79.4743 119.488 79.4292 119.676 79.5629C119.838 79.6789 120.335 79.7547 120.828 79.0956C120.828 79.0956 122.02 77.1877 122.781 75.9131C123.737 76.4352 124.731 76.9847 125.78 77.2393Z" fill="#D66B2E"/>
  <path d="M122.782 75.9131C122.537 76.3224 122.25 76.7961 121.969 77.2505C122.238 77.8274 122.557 78.4043 122.126 78.9812C121.464 79.7579 120.736 80.4073 119.91 80.8198C120.12 81.0631 120.237 81.2468 120.237 81.2468L121.393 80.3364L121.748 80.5926C121.748 80.5926 123.311 79.2584 125.779 77.2393C124.73 76.9831 123.736 76.4352 122.78 75.9131H122.782Z" fill="#002238"/>
  <path d="M128.51 73.9137C128.462 74.1731 128.391 74.4342 128.292 74.7001L128.051 74.7629C128.038 74.7661 128.024 74.771 128.011 74.7758C128.003 74.7758 127.993 74.7774 127.985 74.7774C127.958 74.7806 127.942 74.7871 127.939 74.7984C127.921 74.8032 127.905 74.8096 127.887 74.8145C127.937 74.9257 127.989 75.0385 128.038 75.1497C127.899 75.2189 127.759 75.2898 127.62 75.3607C127.485 75.3962 127.371 75.4445 127.317 75.5122C127.233 75.6137 127.15 75.7136 127.067 75.8152C127.004 75.8893 126.943 75.9634 126.882 76.0375C126.305 76.7353 125.728 77.4346 125.149 78.1324C125.008 78.3016 124.865 78.474 124.721 78.6496C124.419 78.5207 124.151 78.3741 123.906 78.2065C123.844 78.1646 123.783 78.1211 123.722 78.0743C123.719 78.0727 123.715 78.0695 123.711 78.0679C123.651 78.0212 123.592 77.9744 123.534 77.9277C123.414 77.831 123.3 77.7263 123.189 77.6151C123.024 77.4507 122.865 77.2751 122.71 77.0866C122.657 77.0237 122.606 76.9593 122.554 76.8932C122.444 76.753 122.335 76.608 122.224 76.4549L123.86 73.9024L119.74 69.3373L118.863 68.3657L119.402 63.6523L119.493 62.845C120.21 62.7676 121.397 62.7693 122.441 63.4734C122.561 63.554 122.673 63.641 122.776 63.7296C122.88 64.002 122.984 64.2743 123.088 64.5482C123.345 65.0913 123.601 65.6343 123.86 66.1774C124.863 67.4101 125.867 68.6428 126.873 69.8755C127.419 71.2227 127.964 72.5682 128.511 73.9153L128.51 73.9137Z" fill="#01646A"/>
  <path d="M128.51 73.9137C128.462 74.1732 128.391 74.4342 128.292 74.7001L128.051 74.763C128.038 74.7662 128.024 74.771 128.011 74.7758C127.987 74.7823 127.963 74.7903 127.939 74.7984C127.921 74.8032 127.905 74.8097 127.887 74.8145C127.937 74.9257 127.989 75.0385 128.038 75.1497C127.899 75.219 127.759 75.2899 127.62 75.3608C127.519 75.4107 127.418 75.4607 127.317 75.5123C127.233 75.6138 127.15 75.7137 127.067 75.8152C127.004 75.8893 126.943 75.9634 126.882 76.0376C126.305 76.7353 125.728 77.4347 125.149 78.1324L123.906 78.2065C123.844 78.1646 123.783 78.1211 123.722 78.0744C123.719 78.0728 123.715 78.0696 123.711 78.0679C123.651 78.0212 123.592 77.9745 123.534 77.9277C123.415 77.8278 123.3 77.7247 123.189 77.6151C123.024 77.4508 122.865 77.2751 122.71 77.0866C122.657 77.0238 122.606 76.9593 122.554 76.8932L122.803 76.579C122.803 76.579 124.116 74.7323 124.087 74.5648C124.058 74.3972 126.696 72.7213 126.696 72.7213L124.087 73.527V73.0371L120.829 69.6451C120.829 69.6451 120.316 69.5033 119.74 69.3374L118.863 68.3657L119.402 63.6523H121.818C121.818 63.6523 121.458 66.4449 121.406 66.6415C121.355 66.8365 123.427 65.3363 123.427 65.3363C124.546 66.1984 129.23 69.9626 128.51 73.9137Z" fill="#002238"/>
  <path d="M122.631 75.1465C122.443 75.1465 121.946 75.5832 121.97 75.8152C121.994 76.0473 121.602 76.2438 121.602 76.4743C121.602 76.7047 124.733 78.9268 124.951 78.9736C125.169 79.0203 125.009 78.6029 125.043 78.5691C125.076 78.5353 125.944 77.8536 125.897 77.7843C125.851 77.7151 123.078 75.1465 122.629 75.1465H122.631Z" fill="#5DAAAC"/>
  <path d="M106.97 80.6427C106.97 80.6427 106.968 80.6604 106.963 80.6701C106.941 80.741 106.832 80.8441 106.689 80.9521C106.663 80.9714 106.638 80.9908 106.61 81.0101C106.474 81.1084 106.314 81.2099 106.168 81.2953H106.166C106.035 81.3727 105.911 81.4387 105.823 81.479C105.39 81.9286 105.382 82.188 105.382 82.188L103.909 81.2292C103.896 81.4049 103.88 81.5837 103.867 81.7594C103.407 81.392 102.919 81.0198 102.405 80.6491C101.968 80.3381 101.539 80.0416 101.115 79.7661C100.532 79.3826 99.961 79.0345 99.4078 78.7171C99.3981 78.7106 99.3885 78.7058 99.3789 78.6993C99.3869 78.6977 99.3965 78.6929 99.4046 78.6913C99.4126 78.6897 99.4206 78.6848 99.427 78.6832C99.4831 78.6655 99.5392 78.6462 99.5954 78.6268C99.6595 78.6059 99.7204 78.5817 99.7846 78.5575C99.8455 78.535 99.9096 78.5092 99.9722 78.4818C100.099 78.4302 100.224 78.3738 100.351 78.3126C100.439 78.2707 100.529 78.2256 100.617 78.1805C100.647 78.1644 100.676 78.1498 100.707 78.1321C100.888 78.0371 101.067 77.9371 101.244 77.8324C101.361 77.7647 101.479 77.6922 101.596 77.6213C101.832 77.4795 102.063 77.3345 102.291 77.1895C103.131 78.4157 104.435 80.2463 104.435 80.2463C104.967 80.8715 105.413 80.6395 105.613 80.6411C105.814 80.6411 106.442 80.517 106.872 80.5702C106.941 80.5798 106.971 80.6024 106.971 80.6395L106.97 80.6427Z" fill="#D66B2E"/>
  <path d="M106.967 80.643C106.967 80.643 106.966 80.6608 106.961 80.6704C106.939 80.7413 106.83 80.8445 106.687 80.9524C106.661 80.9718 106.636 80.9911 106.608 81.0104C106.472 81.1087 106.312 81.2102 106.166 81.2956H106.164C105.075 81.3343 103.89 80.9315 103.017 80.1258C102.167 79.3458 101.676 79.4361 101.113 79.768C100.53 79.3845 99.9587 79.0365 99.4056 78.719L99.4023 78.6932C99.4023 78.6932 99.4184 78.6868 99.4248 78.6852C99.4809 78.6674 99.537 78.6481 99.5932 78.6288C99.6573 78.6078 99.7182 78.5837 99.7824 78.5595C99.8433 78.5369 99.9074 78.5111 99.97 78.4837C100.097 78.4322 100.222 78.3758 100.348 78.3146C100.437 78.2727 100.526 78.2275 100.615 78.1824C100.645 78.1663 100.675 78.1502 100.704 78.1341C100.886 78.039 101.065 77.9391 101.242 77.8344C101.36 77.7667 101.479 77.6942 101.594 77.6233C101.83 77.4815 102.061 77.3364 102.289 77.1914C103.129 78.4177 104.432 80.2482 104.432 80.2482C104.965 80.8735 105.41 80.6414 105.611 80.643C105.811 80.643 106.44 80.519 106.87 80.5721C106.939 80.5818 106.969 80.6044 106.969 80.6414L106.967 80.643Z" fill="#002238"/>
  <path d="M102.248 76.3223C102.541 76.4061 102.838 76.9266 102.815 77.0522C102.793 77.1779 103.032 77.3713 102.997 77.4857C102.963 77.6001 100.353 80.2476 99.8506 80.2476C99.4305 80.2476 99.4305 79.6192 99.3279 79.5854C99.2253 79.5515 98.5775 78.9811 98.794 78.8892C99.0104 78.7974 102.009 76.253 102.246 76.3207L102.248 76.3223Z" fill="#5DAAAC"/>
  <path d="M99.7156 80.288C99.7894 80.3009 99.8647 80.3137 99.9385 80.3266C100.277 80.1268 100.615 79.9254 100.953 79.7256C101.657 78.9715 102.361 78.2173 103.065 77.4632C102.996 77.2698 102.927 77.0764 102.858 76.8831C102.727 76.7413 102.595 76.5979 102.464 76.4561C102.13 76.8057 101.798 77.157 101.465 77.5067C101.2 77.8596 100.936 78.2125 100.67 78.5654C101.029 78.3269 101.39 78.0884 101.749 77.8483C102.061 77.6872 102.376 77.5244 102.688 77.3633C102.565 77.4648 102.443 77.5663 102.32 77.6678C101.361 78.3994 100.4 79.131 99.4414 79.8609C99.4574 79.9367 99.4735 80.0108 99.4895 80.0865C99.5633 80.1526 99.637 80.2171 99.7108 80.2831L99.7156 80.288Z" fill="#01646A"/>
  <path d="M110.37 79.3748C109.052 79.2443 106.832 75.9248 106.832 75.9248C106.154 76.5468 105.992 78.1534 105.992 78.1534C106.789 79.5778 108.647 80.5946 110.11 80.5721C111.572 80.5479 110.37 79.3764 110.37 79.3764V79.3748Z" fill="#01646A"/>
  <path d="M113.362 60.9853C112.177 65.1846 109.108 83.2533 109.02 84.2636C110.458 85.0581 116.777 86.2295 116.777 86.2295C118.506 77.0397 121.983 64.1082 122.298 63.1382C119.193 60.4133 116.015 60.0717 113.362 60.9837V60.9853Z" fill="white"/>
  <path d="M110.88 79.3744C110.921 78.9216 112.263 67.5451 113.124 64.8976C113.124 64.8976 114.619 64.6785 116.734 64.6188C116.734 64.6188 114.104 64.2611 113.331 63.9823C113.331 63.9823 113.747 62.1324 113.965 61.3042C114.511 61.0367 116.229 60.7386 118.122 60.8063C116.444 60.3599 114.822 60.4808 113.362 60.9835C112.464 64.166 110.482 75.3201 109.539 80.9713L114.357 81.1131C114.357 81.1131 110.839 79.8272 110.881 79.3728L110.88 79.3744Z" fill="#D66B2E"/>
  <path d="M109.017 84.2637C110.456 85.0581 116.775 86.2296 116.775 86.2296C117.071 84.6488 117.421 82.9585 117.796 81.2359C115.051 81.1215 112.346 80.5462 109.744 79.7324C109.327 82.193 109.043 83.9656 109.016 84.2621L109.017 84.2637Z" fill="white"/>
  <path d="M122.295 63.1375C121.367 62.3237 120.433 61.7227 119.508 61.3037C120.283 62.4526 119.93 63.5532 119.819 64.1688C119.68 64.9519 116.989 63.8948 117.287 64.2864C117.587 64.678 118.902 64.5313 118.961 65.5224C119.021 66.5134 118.66 67.021 117.485 69.3285C116.309 71.636 115.275 76.1915 115.081 78.0413C114.887 79.8912 114.199 80.3505 113.681 81.7798C113.354 82.6806 112.394 84.1647 111.727 85.1396C114.013 85.7164 116.771 86.2273 116.771 86.2273C118.5 77.0374 121.977 64.1059 122.292 63.1359L122.295 63.1375Z" fill="white"/>
  <path d="M117.799 81.2359C115.054 81.1215 112.348 80.5462 109.746 79.7324L117.799 81.2359Z" fill="white"/>
  <path d="M121.646 64.9893C120.095 64.1933 115.852 62.7446 112.918 62.6963L112.924 62.3096C115.918 62.3595 120.241 63.834 121.82 64.6445L121.646 64.9893Z" fill="white"/>
  <path d="M113.683 70.7728C113.536 70.7342 113.382 70.789 113.25 70.9259C113.146 71.0355 113.063 71.1918 113.018 71.3658C112.912 71.7751 113.039 72.1377 113.313 72.2086C113.354 72.2199 113.398 72.2231 113.441 72.2183C113.675 72.1941 113.89 71.9508 113.977 71.6156C114.082 71.2063 113.956 70.8437 113.681 70.7728H113.683ZM113.59 71.1306C113.617 71.1435 113.683 71.2901 113.622 71.5238C113.564 71.7494 113.436 71.8573 113.406 71.8525C113.378 71.8396 113.313 71.693 113.374 71.4593C113.402 71.3465 113.454 71.2466 113.515 71.1821C113.56 71.1354 113.587 71.1306 113.59 71.1306Z" fill="white"/>
  <path d="M115.972 62.0515C115.851 62.0209 115.724 62.0644 115.613 62.1756C115.522 62.2691 115.451 62.4012 115.413 62.5511C115.373 62.7074 115.373 62.8637 115.413 62.9926C115.456 63.1344 115.546 63.2295 115.663 63.2601C115.698 63.2698 115.735 63.2714 115.772 63.2681C115.859 63.2585 115.945 63.2134 116.022 63.136C116.114 63.0425 116.184 62.9104 116.223 62.7606C116.261 62.6123 116.263 62.4608 116.227 62.3351C116.186 62.1837 116.094 62.0838 115.974 62.0515H115.972ZM115.665 62.8927C115.645 62.8153 115.649 62.7138 115.674 62.6171C115.701 62.514 115.748 62.4238 115.806 62.3641C115.836 62.3335 115.868 62.3142 115.892 62.311H115.905C115.924 62.3158 115.95 62.3432 115.968 62.406C115.99 62.4866 115.987 62.5865 115.961 62.6913C115.934 62.7944 115.887 62.8846 115.83 62.9443C115.791 62.9829 115.753 63.0023 115.73 62.9974C115.705 62.991 115.679 62.9491 115.666 62.8927H115.665Z" fill="white"/>
  <path d="M118.277 53.2828C118.164 53.2538 118.046 53.2925 117.945 53.3908C117.861 53.473 117.797 53.5906 117.764 53.7228C117.73 53.8549 117.73 53.9886 117.764 54.1014C117.804 54.2368 117.889 54.3286 118.001 54.3576C118.035 54.3673 118.07 54.3689 118.105 54.3657C118.185 54.3576 118.262 54.3174 118.331 54.2497C118.415 54.1675 118.479 54.0499 118.512 53.9177C118.546 53.7856 118.546 53.6519 118.512 53.5391C118.472 53.4037 118.387 53.3118 118.275 53.2828H118.277ZM118.02 54.0241C118.001 53.958 118.002 53.8758 118.023 53.7904C118.046 53.705 118.084 53.6325 118.132 53.5842C118.166 53.5503 118.19 53.5455 118.198 53.5439H118.208C118.222 53.5487 118.241 53.5713 118.254 53.6164C118.273 53.6825 118.272 53.7646 118.251 53.8501C118.229 53.9355 118.19 54.008 118.142 54.0563C118.107 54.0902 118.079 54.0998 118.067 54.0966C118.054 54.0934 118.033 54.0724 118.02 54.0241Z" fill="white"/>
  <path d="M120.578 44.5135C120.475 44.4877 120.364 44.52 120.275 44.6054C120.199 44.6763 120.14 44.7794 120.111 44.8938C120.044 45.1581 120.142 45.403 120.337 45.4546C120.369 45.4626 120.404 45.4659 120.438 45.4626C120.602 45.4449 120.749 45.2902 120.805 45.0743C120.836 44.9534 120.834 44.8294 120.797 44.7295C120.757 44.6167 120.68 44.5409 120.579 44.5151L120.578 44.5135ZM120.371 44.9615C120.387 44.897 120.419 44.839 120.456 44.8036C120.477 44.7842 120.494 44.7762 120.504 44.7746H120.509C120.534 44.781 120.574 44.8761 120.541 45.005C120.507 45.1355 120.427 45.1968 120.401 45.1903C120.376 45.1839 120.336 45.0888 120.369 44.9599L120.371 44.9615Z" fill="white"/>
  <path d="M123.081 35.9324C123.042 35.8357 122.97 35.7681 122.88 35.7455C122.789 35.7213 122.694 35.7455 122.614 35.8116C122.54 35.8712 122.486 35.9614 122.459 36.0662C122.433 36.1645 122.436 36.2676 122.468 36.353C122.507 36.4561 122.579 36.527 122.672 36.5512C122.704 36.5593 122.736 36.5625 122.77 36.5593C122.832 36.5528 122.893 36.5238 122.948 36.4787C123.017 36.4191 123.068 36.3304 123.093 36.2321C123.121 36.1274 123.116 36.021 123.081 35.934V35.9324ZM122.811 36.0065C122.826 36.0098 122.855 36.0726 122.832 36.1628C122.821 36.208 122.797 36.2483 122.77 36.2724C122.752 36.2869 122.741 36.2901 122.739 36.2885C122.736 36.2885 122.728 36.2789 122.72 36.2595C122.707 36.2257 122.707 36.179 122.72 36.1338C122.741 36.0533 122.789 36.0098 122.811 36.0082V36.0065Z" fill="white"/>
  <path d="M123.116 36.1468L123.095 36.2306L113.577 73.6167L113.125 73.4991L113.147 73.4153L122.853 36.0791L123.116 36.1468Z" fill="white"/>
  <path d="M115.274 62.2241C115.058 62.5319 114.727 63.2007 114.681 63.5536C114.662 63.705 114.91 63.792 114.976 63.8259C115.436 64.0595 117.243 64.5317 117.477 64.4753C117.745 64.4124 117.835 62.8977 117.811 62.6673C117.806 62.6141 117.721 62.4578 117.535 62.3885C116.926 62.1629 115.58 62.0147 115.274 62.2225V62.2241Z" fill="white"/>
  <path d="M115.086 62.036C114.776 62.4759 114.664 63.3847 114.681 63.5555C114.699 63.7263 117.021 64.3516 117.289 64.2887C117.556 64.2259 117.646 62.7112 117.622 62.4807C117.598 62.2503 115.485 61.7653 115.086 62.036Z" fill="white"/>
  <path d="M110.379 78.4315L112.438 78.9665C112.563 78.9987 112.726 78.8876 112.888 78.662C113.061 78.4186 113.212 78.0706 113.312 77.6854C113.411 77.3003 113.446 76.9233 113.413 76.6251C113.381 76.3496 113.291 76.1723 113.166 76.1385L111.107 75.6035L110.379 78.4299V78.4315Z" fill="white"/>
  <path d="M113.518 76.6142C113.553 76.9236 113.518 77.3151 113.414 77.7131C113.311 78.1112 113.156 78.4705 112.974 78.7267C112.819 78.9443 112.659 79.0651 112.511 79.0812C112.474 79.0844 112.442 79.0812 112.408 79.0748L110.242 78.5124L111.025 75.4717L113.191 76.0341C113.364 76.0808 113.481 76.2854 113.518 76.6142Z" fill="white"/>
  <path d="M111.4 76.0647C111.437 76.3757 111.4 76.7673 111.297 77.1653C111.195 77.5633 111.039 77.9226 110.856 78.1772C110.702 78.3932 110.54 78.5156 110.393 78.5317C110.358 78.535 110.324 78.5317 110.29 78.5253C110.117 78.4786 109.998 78.2739 109.963 77.9452C109.926 77.6342 109.963 77.2442 110.066 76.8462C110.285 75.9922 110.728 75.3943 111.073 75.4846C111.246 75.5313 111.363 75.736 111.4 76.0647Z" fill="white"/>
  <path d="M111.081 76.4872C111.101 76.658 111.081 76.8739 111.025 77.093C110.969 77.3122 110.882 77.5088 110.783 77.649C110.698 77.7682 110.61 77.8359 110.528 77.844C110.509 77.8456 110.49 77.844 110.472 77.8407C110.377 77.815 110.312 77.7022 110.292 77.5217C110.273 77.3509 110.292 77.1365 110.349 76.9174C110.469 76.4469 110.713 76.1181 110.903 76.1681C110.998 76.1939 111.062 76.3067 111.083 76.4872H111.081Z" fill="white"/>
  <path d="M110.869 77.0526C110.836 77.1848 110.701 77.2653 110.568 77.2299L109.792 77.0285C109.737 77.014 109.681 77.0478 109.668 77.1026L109.388 78.1903C109.341 78.374 109.218 78.5351 109.045 78.6109C108.913 78.6689 108.782 78.6769 108.653 78.6431L107.969 78.4658L108.092 77.984L108.777 78.1629C108.803 78.1693 108.831 78.1645 108.854 78.1516C108.88 78.1371 108.894 78.1162 108.902 78.0888L109.183 76.9995C109.213 76.8786 109.272 76.7642 109.365 76.6836C109.518 76.5483 109.723 76.4983 109.915 76.5483L110.691 76.7513C110.823 76.7851 110.903 76.9221 110.868 77.0542L110.869 77.0526Z" fill="white"/>
  <path d="M108.733 78.0704L107.932 77.8622C107.808 77.8299 107.681 77.905 107.649 78.0299L107.599 78.2234C107.567 78.3483 107.642 78.4758 107.766 78.5081L108.567 78.7163C108.691 78.7486 108.818 78.6735 108.85 78.5486L108.9 78.3551C108.932 78.2302 108.857 78.1027 108.733 78.0704Z" fill="white"/>
  <path d="M113.926 73.3169L113.562 74.7333L112.645 74.4948L113.009 73.0784C113.023 73.0268 113.055 72.9817 113.102 72.9543C113.148 72.9285 113.203 72.9205 113.254 72.9317L113.78 73.0687C113.831 73.08 113.876 73.1154 113.903 73.1622C113.929 73.2089 113.937 73.2637 113.926 73.3152V73.3169Z" fill="white"/>
  <path d="M110.666 84.072C110.983 84.1542 111.309 83.9625 111.391 83.6434L113.76 74.431C113.773 74.3827 113.765 74.3327 113.741 74.2908C113.716 74.2473 113.675 74.2183 113.627 74.2054L112.834 73.9992C112.734 73.9734 112.633 74.033 112.608 74.1329L110.238 83.3453C110.156 83.6643 110.347 83.9915 110.664 84.0736L110.666 84.072Z" fill="white"/>
  <path d="M113.864 74.458L111.493 83.6703C111.419 83.9636 111.169 84.1683 110.883 84.1973C110.803 84.2053 110.72 84.2005 110.635 84.1779C110.452 84.1312 110.3 84.0152 110.203 83.8508C110.107 83.6881 110.081 83.4979 110.128 83.3142L112.5 74.1018C112.54 73.9439 112.702 73.8488 112.859 73.8891L113.651 74.0954C113.726 74.1147 113.792 74.1647 113.832 74.2324C113.872 74.3 113.882 74.3806 113.862 74.4563L113.864 74.458Z" fill="white"/>
  <path d="M110.413 80.2529C110.037 80.9813 109.789 83.3533 109.617 83.7046C109.446 84.0558 111.19 84.8067 111.479 84.6891C111.768 84.5715 112.489 81.2375 112.564 80.9474C111.71 80.493 110.414 80.2529 110.414 80.2529H110.413Z" fill="white"/>
  <path d="M119.243 63.2701C119.026 63.5778 118.696 64.2466 118.649 64.5995C118.63 64.7509 118.879 64.8379 118.945 64.8718C119.405 65.1054 121.212 65.5776 121.446 65.5212C121.714 65.4583 121.803 63.9436 121.779 63.7132C121.775 63.66 121.69 63.5037 121.504 63.4344C120.894 63.2088 119.549 63.0606 119.243 63.2684V63.2701Z" fill="black"/>
  <path d="M126.868 41.7059L126.844 41.7993L117.996 73.6535L117.492 73.5085L126.574 41.6221L126.868 41.7059Z" fill="white"/>
  <path d="M119.058 63.0301C118.749 63.47 118.636 64.3789 118.654 64.5497C118.672 64.7205 120.994 65.3457 121.261 65.2829C121.529 65.22 121.619 63.7053 121.595 63.4749C121.571 63.2444 119.457 62.7594 119.058 63.0301Z" fill="white"/>
  <path d="M118.297 73.3673L117.901 74.774L116.988 74.5162L117.384 73.1094C117.399 73.0547 117.432 73.0128 117.481 72.987C117.529 72.9612 117.582 72.9531 117.636 72.9693L118.157 73.1175C118.209 73.132 118.252 73.1658 118.277 73.2142C118.306 73.2625 118.311 73.3157 118.298 73.3705L118.297 73.3673Z" fill="white"/>
  <path d="M117.123 74.0149C117.099 74.0181 117.075 74.0246 117.052 74.0374C117.009 74.0616 116.979 74.1019 116.964 74.1486L114.394 83.3062C114.35 83.4593 114.37 83.6221 114.447 83.7606C114.524 83.8992 114.652 84.0007 114.804 84.0443C115.12 84.1329 115.449 83.9492 115.539 83.6317L118.109 74.4741C118.122 74.4258 118.117 74.3758 118.093 74.3323C118.069 74.2888 118.029 74.2582 117.982 74.2437L117.193 74.0197C117.171 74.0133 117.147 74.0117 117.124 74.0133L117.123 74.0149Z" fill="white"/>
  <path d="M118.219 74.5046L115.648 83.6622C115.568 83.9491 115.321 84.1457 115.042 84.1763C114.956 84.1859 114.866 84.1763 114.778 84.1537C114.596 84.1021 114.446 83.9829 114.353 83.8185C114.26 83.6526 114.237 83.4608 114.289 83.2803L116.861 74.1227C116.881 74.047 116.931 73.9825 116.998 73.9439C117.067 73.9036 117.146 73.8955 117.223 73.9165L118.013 74.1388C118.089 74.1614 118.151 74.2114 118.191 74.279C118.23 74.3483 118.238 74.4273 118.217 74.5046H118.219Z" fill="white"/>
  <path d="M114.354 81.1143C113.979 81.8426 113.73 84.2146 113.559 84.5659C113.387 84.9172 115.132 85.6681 115.42 85.5504C115.709 85.4328 116.43 82.0988 116.506 81.8088C115.651 81.3544 114.356 81.1143 114.356 81.1143H114.354Z" fill="white"/>
  <path d="M118.994 70.6901C118.689 70.6047 118.36 70.8835 118.232 71.3411C118.104 71.7988 118.237 72.2081 118.543 72.2951C118.593 72.3096 118.644 72.3128 118.697 72.308C118.957 72.2806 119.201 72.0147 119.305 71.6441C119.359 71.4491 119.367 71.2509 119.327 71.0849C119.278 70.8771 119.159 70.7369 118.994 70.6901ZM118.907 71.5313C118.833 71.7939 118.686 71.9003 118.656 71.8955C118.625 71.881 118.556 71.715 118.63 71.4523C118.696 71.2203 118.825 71.0946 118.88 71.0882C118.88 71.0882 118.909 71.1139 118.925 71.1816C118.947 71.2767 118.941 71.4072 118.906 71.5313H118.907Z" fill="white"/>
  <path d="M121.68 60.9283C121.546 60.8896 121.401 60.9363 121.275 61.0588C121.17 61.1603 121.087 61.3086 121.041 61.4746C120.933 61.8597 121.045 62.2045 121.302 62.277C121.344 62.2883 121.389 62.2931 121.432 62.2883C121.526 62.2786 121.623 62.2287 121.708 62.1465C121.812 62.045 121.895 61.8967 121.942 61.7308C121.988 61.5648 121.995 61.394 121.958 61.2538C121.914 61.083 121.815 60.9686 121.68 60.9299V60.9283ZM121.313 61.8661C121.294 61.7775 121.3 61.6663 121.331 61.5583C121.363 61.4423 121.417 61.3424 121.485 61.278C121.525 61.2393 121.558 61.2232 121.581 61.22C121.587 61.22 121.594 61.22 121.597 61.22C121.618 61.2264 121.647 61.257 121.664 61.3279C121.687 61.4182 121.682 61.531 121.65 61.647C121.618 61.763 121.563 61.8613 121.496 61.9274C121.453 61.9693 121.409 61.9918 121.384 61.9838C121.355 61.9757 121.328 61.929 121.313 61.8645V61.8661Z" fill="white"/>
  <path d="M124.386 51.1151C124.26 51.0796 124.127 51.1199 124.011 51.2279C123.915 51.3181 123.84 51.4487 123.8 51.5953C123.756 51.75 123.755 51.9063 123.793 52.0368C123.838 52.1818 123.928 52.2801 124.05 52.314C124.09 52.3253 124.133 52.3285 124.175 52.3253C124.261 52.3156 124.348 52.2737 124.425 52.2012C124.521 52.1109 124.596 51.9804 124.637 51.8338C124.678 51.6855 124.681 51.5357 124.646 51.4084C124.605 51.2553 124.512 51.1505 124.386 51.1151ZM124.079 51.9305C124.063 51.8579 124.066 51.7677 124.091 51.6791C124.117 51.584 124.164 51.5034 124.22 51.4519C124.258 51.4164 124.285 51.41 124.295 51.4084H124.306C124.321 51.4132 124.343 51.4374 124.358 51.4905C124.378 51.5647 124.374 51.6581 124.348 51.7516C124.321 51.8467 124.276 51.9272 124.22 51.9804C124.181 52.0159 124.149 52.0271 124.133 52.0239C124.115 52.0191 124.091 51.9885 124.079 51.9321V51.9305Z" fill="white"/>
  <path d="M127.089 41.3002C126.974 41.268 126.852 41.3002 126.746 41.3953C126.66 41.4726 126.591 41.587 126.555 41.7159C126.519 41.8449 126.519 41.977 126.552 42.0898C126.594 42.2251 126.679 42.3186 126.794 42.3508C126.833 42.3621 126.875 42.3653 126.915 42.3605C127.096 42.3412 127.263 42.1704 127.328 41.9351C127.41 41.6402 127.306 41.3614 127.089 41.3002ZM126.841 42.0012C126.823 41.9448 126.825 41.8722 126.846 41.7981C126.866 41.724 126.902 41.6628 126.947 41.6225C126.966 41.6048 126.987 41.5935 127 41.5919H127.006C127.016 41.5951 127.033 41.6144 127.044 41.6579C127.059 41.7127 127.056 41.7836 127.036 41.8529C127.008 41.9544 126.951 42.0253 126.907 42.0495C126.894 42.0559 126.883 42.0592 126.876 42.0576C126.866 42.0543 126.85 42.035 126.841 42.0012Z" fill="white"/>
  <path d="M118.813 76.4367L117.965 79.4581L115.812 78.8489C115.469 78.7507 115.385 78.011 115.626 77.165C115.736 76.7686 115.9 76.4125 116.088 76.1611C116.285 75.8969 116.49 75.7776 116.663 75.826L118.815 76.4367H118.813Z" fill="white"/>
  <path d="M119.073 77.0089C119.102 77.3215 119.057 77.7098 118.945 78.1062C118.833 78.501 118.671 78.8571 118.483 79.1085C118.325 79.318 118.164 79.4372 118.02 79.4534C117.982 79.4566 117.945 79.4534 117.909 79.4437C117.736 79.3937 117.626 79.1859 117.595 78.8555C117.565 78.5429 117.611 78.1546 117.722 77.7582C117.937 76.9976 118.328 76.4465 118.652 76.4126C118.689 76.4094 118.726 76.411 118.759 76.4207C118.932 76.4707 119.046 76.6785 119.077 77.0089H119.073Z" fill="white"/>
  <path d="M118.731 77.4401C118.746 77.6061 118.723 77.814 118.662 78.0251C118.603 78.2362 118.516 78.4247 118.417 78.5584C118.332 78.6696 118.247 78.7341 118.17 78.7421C118.149 78.7437 118.13 78.7421 118.111 78.7373C118.018 78.7115 117.96 78.6003 117.942 78.4247C117.926 78.2587 117.95 78.0508 118.01 77.8397C118.125 77.4353 118.332 77.142 118.505 77.1227C118.524 77.1211 118.544 77.1227 118.563 77.1275C118.656 77.1533 118.715 77.2645 118.731 77.4401Z" fill="white"/>
  <path d="M120.184 76.6701C120.157 76.6636 120.13 76.6701 120.107 76.6846C120.085 76.6991 120.069 76.7217 120.064 76.7491L119.836 77.8496C119.811 77.9737 119.755 78.093 119.663 78.1816C119.516 78.3218 119.319 78.3782 119.126 78.3379L118.342 78.1735C118.207 78.1461 118.122 78.014 118.15 77.8786C118.177 77.7449 118.308 77.6579 118.443 77.6869L119.227 77.8513C119.254 77.8577 119.282 77.8513 119.304 77.8368C119.327 77.8206 119.343 77.7997 119.349 77.7707L119.578 76.6669C119.604 76.5428 119.66 76.4236 119.751 76.3365C119.899 76.1963 120.096 76.1416 120.289 76.1818L120.981 76.3269L120.88 76.8135L120.188 76.6685L120.184 76.6701Z" fill="white"/>
  <path d="M120.143 76.8137L121.105 77.0148C121.254 77.046 121.4 76.9498 121.431 76.7999L121.479 76.568C121.51 76.4182 121.414 76.2714 121.265 76.2402L120.303 76.0391C120.154 76.0079 120.008 76.1041 119.977 76.254L119.929 76.4859C119.898 76.6358 119.994 76.7825 120.143 76.8137Z" fill="white"/>
  <path d="M52.5683 135.828C53.4539 135.828 54.1717 135.107 54.1717 134.217C54.1717 133.327 53.4539 132.605 52.5683 132.605C51.6827 132.605 50.9648 133.327 50.9648 134.217C50.9648 135.107 51.6827 135.828 52.5683 135.828Z" fill="white"/>
  <path d="M126.338 135.828C127.223 135.828 127.941 135.107 127.941 134.217C127.941 133.327 127.223 132.605 126.338 132.605C125.452 132.605 124.734 133.327 124.734 134.217C124.734 135.107 125.452 135.828 126.338 135.828Z" fill="white"/>
  <path d="M156.957 100.25C148.592 100.25 142.512 100.25 142.512 100.25C142.512 100.25 153.848 97.3398 157.364 97.3398" fill="#EEEEEE"/>
  <path d="M75.1221 60.7614L71.1776 74.7919C68.1968 74.7806 65.2144 74.7693 62.2335 74.7564H62.1133C63.372 71.3096 64.6291 67.8628 65.8878 64.416L72.2198 61.9087L75.1221 60.7598V60.7614Z" fill="#B82D3D"/>
  <path d="M81.4594 74.8573L69.7734 74.7928L74.9766 62.0225L81.4594 74.8573Z" fill="#5B1425"/>
  <path d="M74.5273 72.7098V70.6778C74.5273 70.5737 74.4434 70.4893 74.3397 70.4893H71.1569C71.0533 70.4893 70.9693 70.5737 70.9693 70.6778V72.7098C70.9693 72.8139 71.0533 72.8983 71.1569 72.8983H74.3397C74.4434 72.8983 74.5273 72.8139 74.5273 72.7098Z" fill="black"/>
  <path d="M71.2871 72.5771H74.207V70.8094H71.2871V72.5771Z" fill="#ED954C"/>
  <path d="M74.2594 64.3663L72.1428 69.563C72.1075 69.6484 72.1701 69.7419 72.2615 69.7419L77.0173 69.7677C77.1135 69.7677 77.176 69.6662 77.1327 69.5791L74.4951 64.355C74.4454 64.2567 74.3026 64.2615 74.261 64.3646L74.2594 64.3663Z" fill="black"/>
  <path d="M76.7055 69.4465L72.543 69.424L74.3966 64.875L76.7055 69.4465Z" fill="#ED954C"/>
  <path d="M75.6128 66.7861H75.4531V69.5851H75.6128V66.7861Z" fill="black"/>
  <path d="M73.4839 66.7861H73.3242V69.5851H73.4839V66.7861Z" fill="black"/>
  <path d="M76.27 68.2588H72.8867V68.4166H76.27V68.2588Z" fill="black"/>
  <path d="M74.4605 64.7432H74.3008V69.5854H74.4605V64.7432Z" fill="black"/>
  <path d="M75.1198 62.0225L81.6025 74.8573L80.5442 74.8524L74.6211 63.2439L75.1198 62.0225Z" fill="black"/>
  <path d="M78.142 74.8288L78.0329 70.4893L74.9688 70.5054L75.0425 74.8288H78.142Z" fill="black"/>
  <path d="M75.3626 74.7933H77.8207L77.7245 70.8115L75.2969 70.8244L75.3626 74.7933Z" fill="#4C1122"/>
  <path d="M81.605 74.8573L75.1223 62.3157L69.9191 74.7912C69.6705 74.7832 69.4204 74.7767 69.1719 74.7687C71.1553 70.0988 73.1388 65.429 75.1223 60.7607C77.4649 65.4564 79.8059 70.152 82.1486 74.8476C81.9674 74.8508 81.7862 74.8541 81.605 74.8557V74.8573Z" fill="#4C1122"/>
  <path d="M44.1221 86.2147H28.2383L31.5478 77.0829L34.5174 76.5366L33.6195 75.1508L34.2608 74.8382L32.8177 73.5781L36.7173 62.8156L36.937 62.2129L40.9472 75.6053L39.5731 76.7461L41.2952 76.7751L44.1221 86.2147Z" fill="#1C2533"/>
  <path d="M50.8403 86.2146L61.4728 91.8641L46.2224 89.8338L53.4523 94.083L25.8906 87.9597V86.1356L37.2767 84.1455L50.8403 86.2146Z" fill="#1C2533"/>
  <path d="M44.1196 86.2147H41.0073L40.6898 77.3117L38.5732 77.1458L39.4391 74.9865L36.7148 62.8156L36.9345 62.2129L40.9447 75.6053L39.5706 76.7461L41.2927 76.7751L44.1196 86.2147Z" fill="#F2DFC4"/>
  <path d="M50.8406 86.2145H39.2461L45.3649 69.3334L45.5974 68.6953L48.1709 77.2954L46.9186 78.1575L48.4771 78.3186L50.8406 86.2145Z" fill="#1C2533"/>
  <path d="M48.1732 77.2954L46.9209 78.1575L47.8525 77.2486L45.3672 69.3334L45.5997 68.6953L48.1732 77.2954Z" fill="#F2DFC4"/>
  <path d="M50.84 86.2152H50.5658L48.2552 78.6062L46.918 78.1582L48.4765 78.3193L50.84 86.2152Z" fill="#F2DFC4"/>
  <path d="M39.6267 102.001H26.1016V73.9792L28.736 66.7118L28.9156 66.2139L31.3785 74.4385L33.8767 82.7887L30.3972 85.0657L32.6116 85.5781L30.5704 87.7502L35.238 87.3345L39.6267 102.001Z" fill="#131824"/>
  <path d="M41.2184 75.8779L49.0368 102.002H31.75L41.2184 75.8779Z" fill="#131824"/>
  <path d="M54.93 82.9805L60.6222 102.001H48.0352L54.93 82.9805Z" fill="#131824"/>
  <path d="M155.47 81.2342V102.002H135.184L141.424 84.7825L143.268 79.6969L146.073 79.3214L144.219 77.0784L149.7 61.9521L149.876 62.5371L155.47 81.2342Z" fill="#131824"/>
  <path d="M146.07 79.3213L143.591 80.4718L142.204 85.4366L141.422 84.7823L143.266 79.6967L146.07 79.3213Z" fill="#D66B2E"/>
  <path d="M147.024 102.001H123.34L123.555 101.41L124.704 98.2373L127.812 97.5363L129.821 97.0835L128.381 96.0055L127.31 95.2062L128.809 94.8485L131.017 94.3199L129.358 93.3676L126.967 91.9947L127.926 89.3488L131.163 88.4979L132.239 88.2143L131.442 87.7406L129.03 86.3032L136.312 66.2139L137.7 70.8579L147.024 102.001Z" fill="#131824"/>
  <path d="M124.704 98.2371L127.812 97.5361L126.377 101.41H123.555L124.704 98.2371Z" fill="#D66B2E"/>
  <path d="M127.309 95.2064L128.808 94.8486C128.474 95.0114 128.142 95.1725 127.809 95.3353C128 95.5593 128.189 95.7832 128.38 96.0072C128.022 95.7413 127.666 95.4739 127.309 95.208V95.2064Z" fill="#D66B2E"/>
  <path d="M127.925 89.3493C129.362 88.9706 130.8 88.5935 132.237 88.2148C131.063 88.6918 129.888 89.1672 128.714 89.6442C128.361 90.5578 128.009 91.4715 127.656 92.3852C127.425 92.2546 127.196 92.1241 126.965 91.9952L127.924 89.3509L127.925 89.3493Z" fill="#D66B2E"/>
  <path d="M137.334 69.5124C134.853 75.0621 132.371 80.6117 129.891 86.1614C130.673 86.8463 131.457 87.5311 132.24 88.2143C131.17 87.5778 130.101 86.9397 129.031 86.3032L136.313 66.2139C136.652 67.3128 136.994 68.4134 137.334 69.5124Z" fill="#D66B2E"/>
  <path d="M155.251 127.902V52.0984L89.9284 14.1982L24.6055 52.0984V127.902L89.9284 165.802L155.251 127.902Z" stroke="black" stroke-width="1.66347" stroke-linecap="round" stroke-linejoin="round"/>
  <path d="M165.434 131.077C115.345 124.604 64.6589 124.604 14.5703 131.077C14.5703 121.361 14.5703 111.645 14.5703 101.929C64.8577 101.929 115.147 101.929 165.434 101.929V131.077Z" fill="black"/>
  <path d="M165.361 131.087C115.274 124.614 64.5885 124.614 14.5 131.087C14.5 121.37 14.5 111.655 14.5 101.938C64.7874 101.938 115.073 101.938 165.361 101.938V131.087Z" stroke="black" stroke-width="1.66347" stroke-linecap="round" stroke-linejoin="round"/>
  <path d="M17.7438 104.101C19.6663 104.1 21.5873 104.096 23.5098 104.095C27.156 104.101 28.9423 106.016 28.9375 109.53C28.9327 113.241 28.9295 116.952 28.9246 120.662C28.9198 124.176 27.1304 126.252 23.4938 126.627C21.576 126.82 19.6599 127.022 17.7422 127.233V104.103L17.7438 104.101ZM21.3868 107.347C21.3852 112.762 21.382 118.178 21.3804 123.594C22.0635 123.533 22.7466 123.473 23.4312 123.414C24.5889 123.312 25.2848 122.679 25.2848 121.084C25.288 117.208 25.2912 113.333 25.2944 109.459C25.2944 107.864 24.6001 107.298 23.4408 107.316C22.7562 107.326 22.0715 107.337 21.3868 107.348V107.347Z" fill="#82C439"/>
  <path d="M32.9188 104.085C34.1342 104.085 35.3496 104.084 36.5634 104.082C36.5522 111.203 36.5394 118.322 36.5282 125.443C35.3143 125.541 34.1005 125.643 32.8867 125.747C32.8979 118.527 32.9076 111.306 32.9188 104.085Z" fill="#82C439"/>
  <path d="M45.7802 103.837C49.327 103.843 51.1453 105.703 51.1389 108.955C51.1389 109.167 51.1389 109.382 51.1389 109.594C49.9892 109.614 48.8412 109.633 47.6931 109.654C47.6931 109.37 47.6931 109.087 47.6947 108.802C47.6979 107.334 47.0357 106.781 45.8764 106.792C44.7171 106.802 44.0533 107.372 44.0501 108.86C44.0469 110.373 44.7732 111.496 47.156 113.281C50.1993 115.571 51.1582 117.208 51.1534 119.537C51.1469 122.789 49.2869 124.751 45.708 124.999C42.1291 125.251 40.2788 123.473 40.2852 120.093C40.2852 119.661 40.2852 119.231 40.2868 118.799C41.4348 118.738 42.5829 118.68 43.7326 118.623C43.7326 119.119 43.731 119.614 43.7294 120.11C43.7262 121.599 44.4541 122.089 45.6134 122.022C46.7727 121.954 47.5039 121.383 47.5055 119.915C47.5087 118.415 46.7823 117.34 44.3996 115.565C41.3563 113.275 40.399 111.543 40.4022 109.135C40.4086 105.758 42.235 103.83 45.7802 103.839V103.837Z" fill="#82C439"/>
  <path d="M65.4732 116.4C65.4732 117.272 65.47 118.142 65.4684 119.014C65.4635 122.159 63.6019 124.019 60.0214 124.186C56.4393 124.359 54.5874 122.622 54.5938 119.389C54.6002 115.894 54.6082 112.401 54.6146 108.905C54.621 105.675 56.481 103.831 60.0599 103.836C63.6388 103.841 65.4924 105.637 65.486 108.783C65.486 109.419 65.4844 110.058 65.4828 110.694C64.3331 110.709 63.185 110.725 62.0354 110.741C62.0354 110.033 62.0386 109.326 62.0386 108.619C62.0418 107.204 61.3122 106.67 60.1529 106.678C58.9936 106.685 58.2625 107.233 58.2592 108.66C58.2528 112.257 58.2448 115.852 58.2384 119.447C58.2352 120.875 58.9648 121.357 60.1257 121.312C61.2866 121.265 62.0161 120.73 62.0193 119.315C62.0209 118.372 62.0225 117.428 62.0241 116.485C63.1738 116.455 64.3235 116.426 65.4732 116.398V116.4Z" fill="#82C439"/>
  <path d="M69.0652 108.753C69.07 105.622 71.0278 103.834 74.6067 103.837C78.1856 103.839 80.1402 105.603 80.137 108.689C80.1338 112.034 80.1322 115.378 80.129 118.723C80.1274 121.81 78.168 123.596 74.5843 123.681C71.0006 123.77 69.046 122.052 69.0508 118.92C69.0556 115.531 69.0604 112.142 69.0652 108.753ZM72.6986 119.034C72.697 120.423 73.4266 120.934 74.5875 120.91C75.7484 120.886 76.4796 120.349 76.4812 118.965C76.4844 115.479 76.4876 111.995 76.4908 108.51C76.4908 107.127 75.7628 106.604 74.6035 106.607C73.4426 106.612 72.7131 107.14 72.7115 108.531C72.7067 112.031 72.7034 115.532 72.6986 119.032V119.034Z" fill="#82C439"/>
  <path d="M89.5861 119.738H89.6518C90.5706 114.511 91.4862 109.285 92.4033 104.058C93.5193 104.058 94.6353 104.058 95.7497 104.058C94.56 110.474 93.367 116.88 92.1741 123.285C90.359 123.278 88.5454 123.28 86.7303 123.29C85.5374 116.884 84.346 110.477 83.1562 104.058C84.3829 104.058 85.6079 104.058 86.8346 104.058C87.7501 109.287 88.6673 114.512 89.5845 119.738H89.5861Z" fill="#82C439"/>
  <path d="M102.75 112.212C104.419 112.226 106.089 112.242 107.758 112.262C107.758 113.188 107.759 114.115 107.761 115.041C106.092 115.015 104.423 114.995 102.754 114.975C102.755 116.864 102.757 118.752 102.758 120.641C104.859 120.676 106.961 120.718 109.061 120.771C109.061 121.7 109.065 122.628 109.065 123.556C105.747 123.461 102.428 123.39 99.1105 123.345C99.1057 116.917 99.1009 110.487 99.0977 104.06C102.412 104.06 105.726 104.06 109.039 104.063C109.039 104.991 109.042 105.919 109.042 106.847C106.943 106.838 104.844 106.83 102.744 106.825C102.746 108.621 102.747 110.417 102.749 112.213L102.75 112.212Z" fill="#82C439"/>
  <path d="M120.607 123.987C120.406 123.465 120.273 123.148 120.27 121.527C120.268 120.484 120.267 119.442 120.263 118.399C120.26 116.551 119.529 115.847 117.871 115.805C117.451 115.794 117.031 115.784 116.611 115.774C116.616 118.456 116.62 121.135 116.625 123.817C115.41 123.768 114.193 123.722 112.976 123.68C112.966 117.141 112.955 110.602 112.945 104.062C114.78 104.062 116.612 104.063 118.447 104.066C122.224 104.063 123.852 105.584 123.857 108.687C123.857 109.213 123.858 109.739 123.86 110.265C123.865 112.332 123.105 113.633 121.48 114.248C121.48 114.268 121.48 114.287 121.48 114.305C123.305 115.004 123.905 116.519 123.908 118.613C123.91 119.646 123.913 120.679 123.915 121.712C123.916 122.687 123.951 123.406 124.317 124.171C123.079 124.107 121.841 124.045 120.603 123.989L120.607 123.987ZM116.598 106.884C116.601 108.906 116.604 110.929 116.609 112.951C117.084 112.959 117.56 112.969 118.035 112.978C119.394 113.006 120.222 112.511 120.219 110.917C120.219 110.263 120.215 109.609 120.215 108.955C120.212 107.532 119.648 106.903 118.355 106.895C117.77 106.892 117.185 106.887 116.6 106.884H116.598Z" fill="#82C439"/>
  <path d="M127.926 104.069C129.141 104.069 130.357 104.069 131.57 104.073C131.585 110.911 131.598 117.75 131.612 124.589C130.397 124.512 129.181 124.439 127.966 124.37C127.953 117.603 127.939 110.837 127.926 104.069Z" fill="#82C439"/>
  <path d="M139.204 109.878C139.181 109.878 139.159 109.878 139.138 109.878C139.148 114.956 139.157 120.033 139.167 125.109C138.073 125.029 136.981 124.95 135.888 124.874C135.875 117.942 135.86 111.009 135.848 104.077C137.373 104.077 138.896 104.08 140.421 104.08C141.654 108.296 142.888 112.568 144.12 116.901C144.142 116.901 144.165 116.902 144.186 116.904C144.179 112.63 144.171 108.357 144.165 104.084C145.247 104.084 146.329 104.085 147.412 104.087C147.423 111.317 147.433 118.548 147.444 125.776C146.198 125.668 144.95 125.564 143.703 125.462C142.205 120.18 140.705 114.988 139.205 109.878H139.204Z" fill="#82C439"/>
  <path d="M157.159 114.103C158.859 114.181 160.557 114.261 162.256 114.345V121.68C162.256 125.394 160.406 127.297 156.837 126.917C153.266 126.542 151.411 124.36 151.407 120.842C151.403 117.021 151.399 113.201 151.395 109.379C151.39 105.861 153.243 103.847 156.822 103.837C160.401 103.826 162.258 105.94 162.258 109.653V111.899C161.11 111.855 159.962 111.813 158.815 111.771C158.815 110.958 158.815 110.146 158.815 109.332C158.815 107.704 158.086 107.076 156.926 107.06C155.767 107.044 155.039 107.641 155.039 109.24C155.042 113.27 155.046 117.3 155.049 121.33C155.049 122.929 155.778 123.565 156.936 123.668C158.094 123.772 158.82 123.254 158.82 121.625C158.82 120.227 158.82 118.828 158.819 117.429C158.267 117.395 157.715 117.361 157.164 117.329C157.164 116.253 157.164 115.176 157.162 114.1L157.159 114.103Z" fill="#82C439"/>
  <path d="M62.9459 137.873L62.9572 134.695L60.669 137.944L58.4354 134.745V137.873H56.7422V130.293L60.6642 134.845L64.6536 130.325L64.6648 137.875H62.9443L62.9459 137.873Z" fill="#EEEEEE"/>
  <path d="M66.6367 137.873V130.558H68.1536V137.873H66.6367Z" fill="#EEEEEE"/>
  <path d="M71.7514 134.151V137.873H70.2266V130.193L74.5174 134.299V130.556H76.0423V138.239L71.753 134.149L71.7514 134.151Z" fill="#EEEEEE"/>
  <path d="M79.4897 134.151V137.873H77.9648V130.193L82.2557 134.299V130.556H83.7806V138.239L79.4913 134.149L79.4897 134.151Z" fill="#EEEEEE"/>
  <path d="M98.8703 137.179C98.6474 137.44 98.439 137.63 98.2417 137.751C97.998 137.904 97.6934 138.009 97.3262 138.067C97.1498 138.093 96.9718 138.105 96.7874 138.105C96.1957 138.105 95.6057 137.969 95.0156 137.695C94.4656 137.437 93.9974 137.1 93.6094 136.684L94.6628 135.527C94.9402 135.809 95.2946 136.048 95.7243 136.246C96.0835 136.412 96.4042 136.513 96.6864 136.55C96.7602 136.562 96.8307 136.567 96.8981 136.567C97.246 136.567 97.4689 136.457 97.5667 136.239C97.6036 136.164 97.6212 136.086 97.6212 136.011C97.6212 135.835 97.5202 135.669 97.3182 135.516C97.1161 135.361 96.7746 135.173 96.2935 134.949C96.0033 134.815 95.7532 134.676 95.5431 134.535C95.4309 134.459 95.3187 134.38 95.2048 134.301C94.5426 133.919 94.1353 133.413 93.983 132.781C93.9445 132.624 93.9237 132.469 93.9237 132.316C93.9237 131.903 94.0696 131.523 94.3598 131.178C94.5827 130.917 94.7927 130.727 94.9915 130.606C95.2353 130.453 95.5399 130.35 95.9071 130.295C96.1316 130.258 96.3497 130.24 96.5597 130.24C97.5699 130.24 98.455 130.648 99.2118 131.463L98.1584 132.478C97.6709 131.984 97.1434 131.736 96.5758 131.736C96.5052 131.736 96.4363 131.74 96.3721 131.752C96.0947 131.794 95.9071 131.868 95.8109 131.972C95.6955 132.093 95.6377 132.224 95.6377 132.364C95.6377 132.543 95.7275 132.702 95.9087 132.841C96.1621 133.033 96.4908 133.223 96.8916 133.41C97.1883 133.547 97.4625 133.693 97.7158 133.848C97.8521 133.932 97.9884 134.017 98.1247 134.104C98.3893 134.257 98.6362 134.472 98.8671 134.747C99.098 135.024 99.2423 135.282 99.2984 135.526C99.3321 135.666 99.3497 135.806 99.3497 135.948C99.3497 136.393 99.1894 136.803 98.8703 137.179Z" fill="#EEEEEE"/>
  <path d="M104.646 138.051C103.583 138.051 102.688 137.677 101.964 136.929C101.244 136.19 100.883 135.284 100.883 134.212C100.883 133.52 101.048 132.88 101.377 132.293C101.705 131.707 102.162 131.241 102.749 130.896C103.336 130.551 103.965 130.379 104.635 130.379C105.685 130.379 106.572 130.759 107.295 131.52C108.007 132.272 108.363 133.178 108.363 134.237C108.363 135.295 108.009 136.193 107.298 136.932C106.58 137.677 105.696 138.049 104.646 138.049V138.051ZM104.624 131.9C103.974 131.9 103.44 132.127 103.023 132.583C102.619 133.025 102.417 133.578 102.417 134.238C102.417 134.994 102.685 135.592 103.219 136.03C103.636 136.375 104.112 136.547 104.646 136.547C105.275 136.547 105.801 136.317 106.222 135.856C106.631 135.408 106.836 134.865 106.836 134.225C106.836 133.586 106.628 133.041 106.211 132.591C105.786 132.131 105.257 131.9 104.622 131.9H104.624Z" fill="#EEEEEE"/>
  <path d="M92.6415 134.828C92.6688 134.638 92.6816 134.44 92.6816 134.237C92.6816 134.019 92.6672 133.808 92.6351 133.603C92.5197 132.812 92.1797 132.118 91.6137 131.52C90.8906 130.759 90.0055 130.379 88.9552 130.379C88.285 130.379 87.6564 130.551 87.0695 130.896C86.4827 131.241 86.0241 131.707 85.6954 132.295C85.3667 132.881 85.2031 133.521 85.2031 134.212C85.2031 135.284 85.5623 136.19 86.2838 136.928C87.0086 137.675 87.9033 138.049 88.968 138.049C90.0327 138.049 90.9018 137.677 91.6185 136.932C91.7981 136.746 91.9553 136.547 92.0883 136.339L90.7655 135.571C90.7014 135.671 90.6276 135.766 90.5442 135.856C90.1225 136.317 89.5966 136.546 88.968 136.546C88.4325 136.546 87.9579 136.375 87.541 136.03C87.1545 135.713 86.9076 135.311 86.8018 134.828H92.6415ZM86.8098 133.603C86.8996 133.215 87.0776 132.875 87.3453 132.583C87.7622 132.129 88.2962 131.9 88.9456 131.9C89.595 131.9 90.1081 132.131 90.5346 132.591C90.8088 132.888 90.9932 133.225 91.0862 133.603H86.8098Z" fill="#EEEEEE"/>
  <path d="M113.307 132.085V137.873H111.759V132.085H109.465V130.558H115.441V132.085H113.308H113.307Z" fill="#EEEEEE"/>
  <path d="M120.366 137.874L119.82 136.406H117.471L116.901 137.874H115.105L118.625 130.282L122.164 137.874H120.365H120.366ZM118.647 133.555L118.056 134.889H119.239L118.647 133.555Z" fill="#EEEEEE"/>
  <path d="M152.753 131.241C141.501 129.848 132.328 129.856 132.328 129.856C143.353 131.69 154.162 134.217 154.162 134.217" fill="#EEEEEE"/>
  <path d="M27.1047 131.241C38.3561 129.848 47.5295 129.856 47.5295 129.856C36.5042 131.69 25.6953 134.217 25.6953 134.217" fill="#EEEEEE"/>
  <path d="M27.2923 131.187C38.5437 129.795 47.5295 129.858 47.5295 129.858C36.5042 131.692 25.6953 134.218 25.6953 134.218" fill="#EEEEEE"/>
  <path d="M110.873 49.3171H92.5859C98.0842 48.4727 97.2231 48.6516 99.035 48.426C97.1959 47.6138 97.454 44.3894 100.767 46.8533C101.172 45.3692 104.546 44.3379 105.335 46.1249C106.767 44.9131 109.416 46.7437 107.588 48.1295C109.31 48.8095 110.873 49.3155 110.873 49.3155V49.3171Z" fill="#EEEEEE"/>
  <path d="M92.8692 30.346C92.8643 30.5716 92.8291 30.9068 92.6799 31.2806C92.5805 31.5304 92.4587 31.7286 92.3528 31.8736C92.1236 32.1105 91.8927 32.3506 91.6618 32.5939C91.4293 32.8388 91.1984 33.0838 90.9707 33.3271L90.1657 34.9079L89.6943 35.3462L88.9712 35.5105L88.4308 35.6749L88.2833 35.8103L88.1165 35.9359L88.0251 36.1116L88.054 36.2598L88.1662 36.3469L88.1807 36.2437L88.418 36.2034L88.8477 36.2953L88.1117 36.79L87.5377 37.109C87.3469 37.2621 87.1031 37.4539 86.8161 37.6779C86.6446 37.8116 86.5163 37.9099 86.3239 38.0195C86.1555 38.1146 86.0064 38.1774 85.9022 38.2177L84.9609 38.5513C85.1149 38.5883 85.2447 38.598 85.341 38.598C85.7242 38.6028 86.1058 38.4771 86.1058 38.4771C86.0272 38.5319 85.9054 38.606 85.7466 38.6705C85.5125 38.7656 85.3474 38.7768 85.349 38.8042C85.3506 38.8365 85.5895 38.8606 85.8284 38.8381C86.0625 38.8155 86.2501 38.7527 86.3752 38.7011C85.9294 38.9106 85.846 39.0008 85.8589 39.0427C85.8749 39.0991 86.0721 39.0943 86.1635 39.083C86.3415 39.0621 86.473 38.9847 86.5419 38.9348C86.3976 39.1024 86.3848 39.1604 86.4008 39.1829C86.4345 39.2297 86.5997 39.1281 86.869 39.0766C87.0871 39.0363 87.2443 39.054 87.3212 39.0556C87.7846 39.0685 88.6954 38.6431 89.4811 38.0308C89.9156 37.6908 90.1128 37.4523 90.6804 37.1268C90.8745 37.0156 91.0412 36.935 91.1503 36.8851C91.3154 36.9672 91.5239 37.0913 91.7403 37.2766C91.9632 37.4684 92.1219 37.6634 92.231 37.8197C92.2951 37.8696 92.3865 37.8648 92.4442 37.8116C92.5052 37.7552 92.5164 37.6585 92.4667 37.5892C92.5517 37.665 92.6735 37.6747 92.7617 37.6166C92.8339 37.5699 92.874 37.4829 92.8659 37.3927C92.9734 37.4587 93.1033 37.4523 93.1802 37.383C93.2812 37.2927 93.2844 37.0962 93.1498 36.9769C93.4015 37.0011 93.5747 36.8206 93.5667 36.682C93.5586 36.566 93.4191 36.4387 93.2267 36.4274C93.4496 36.3178 93.5602 36.1567 93.5282 36.0842C93.4977 36.0149 93.3245 35.9891 93.1193 36.0504C93.3197 35.9182 93.4384 35.7877 93.4111 35.7313C93.3758 35.6556 93.0968 35.72 93.0744 35.7249C93.161 35.5669 93.1866 35.4686 93.1514 35.4316C93.1 35.38 92.9285 35.4445 92.6366 35.6298L91.867 35.7136C92.0113 35.6572 92.2133 35.5637 92.4266 35.4042C92.6334 35.2495 92.8066 35.0642 93.0167 34.7612C93.2171 34.4712 93.5137 33.9781 93.7671 33.2594L93.5153 33.1643C93.5715 33.1466 94.0028 33.008 93.9884 32.921C93.9739 32.8404 93.5859 32.8453 93.5153 32.8469C93.6212 32.8179 93.7687 32.7631 93.9146 32.6471C94.0124 32.5681 94.1263 32.4505 94.1038 32.415C94.0862 32.3876 94.0028 32.4295 93.8312 32.4569C93.7254 32.4747 93.6372 32.4779 93.5795 32.4779C93.9515 32.2233 94.1263 32.0766 94.1038 32.0347C94.0878 32.0041 93.9611 32.0315 93.7254 32.1185C93.8376 32.0525 93.9675 31.9461 94.0397 31.7818C94.0605 31.7334 94.1054 31.6319 94.0685 31.5948C94.0156 31.5433 93.8248 31.6561 93.7318 31.7173C93.9691 31.3725 94.0685 31.1823 94.0317 31.1501C93.998 31.1195 93.8521 31.2178 93.5939 31.4417C93.6276 31.3708 93.6757 31.2645 93.7238 31.1307C93.7879 30.9583 93.8521 30.7795 93.8152 30.7569C93.7927 30.7424 93.7382 30.7956 93.4993 31.0437C93.3983 31.1485 93.3149 31.2371 93.2556 31.2999C93.3117 31.192 93.3774 31.0244 93.3807 30.8165C93.3839 30.6538 93.3486 30.4669 93.3037 30.4652C93.2636 30.4636 93.2476 30.6119 93.1433 30.8278C93.0776 30.9664 93.0038 31.0695 92.9541 31.1356C92.9798 31.0212 93.0054 30.8359 92.9622 30.6167C92.9397 30.5071 92.9044 30.4137 92.8708 30.3428L92.8692 30.346Z" fill="#002238"/>
  <path d="M108.107 49.0409C107.634 48.8331 107.09 48.6107 106.447 48.6123C106.279 48.6123 106.13 48.6284 106.082 48.7203C105.989 48.8991 106.343 49.2472 106.427 49.3294C106.539 49.439 106.901 49.7725 107.523 49.9304C108.086 50.0739 108.572 49.9997 108.857 49.9304L109.101 49.497C108.713 49.3101 108.376 49.157 108.107 49.0393V49.0409Z" fill="#002238"/>
  <path d="M105.98 46.8181L106.745 46.0479L110.277 48.6535V47.0405L111.364 47.6367L111.597 47.5223C111.898 47.5755 112.264 47.6174 112.679 47.6125C113.195 47.6077 113.639 47.5368 113.987 47.4546L114.642 47.8172C114.824 48.0782 115.047 48.3634 115.318 48.6551C115.679 49.0434 116.038 49.3496 116.356 49.5865L115.296 51.8537L118.025 54.9138L116.851 55.6615C115.785 55.0959 114.335 54.2499 112.722 53.0542C112.485 52.8786 111.784 52.3549 110.771 51.4896C109.531 50.4325 107.857 48.8968 105.977 46.8181H105.98Z" fill="#002238"/>
  <path d="M144.88 77.1235L146.068 79.3214L144.215 77.0784L149.695 61.9521L149.872 62.5371L144.88 77.1235Z" fill="#D66B2E"/>
  <path d="M49.5931 64.736L48.2879 68.3375L47.5391 62.675V57.873L49.5931 64.736Z" fill="#F2DFC4"/>
  <path d="M56.7186 67.8096C56.5278 68.2721 56.337 68.7346 56.1462 69.1971C55.2643 66.0291 54.384 62.861 53.5021 59.6914L52.9922 55.3535C54.2349 59.5045 55.4775 63.6571 56.7202 67.808L56.7186 67.8096Z" fill="#F2DFC4"/>
  <path d="M111.075 62.951H109.537L109.438 62.4515C109.622 62.4128 109.808 62.3741 109.992 62.3387C110.02 61.0496 110.044 59.7588 110.071 58.4697L110.651 58.7372L111.075 62.951Z" fill="#D66B2E"/>
  <path d="M111.074 62.9511L110.957 62.9914L103.687 65.5261L97.8888 74.7337L98.1197 76.0502L98.2464 77.0525C98.5831 77.5504 98.9198 78.0483 99.2565 78.5479C99.1331 78.6429 99.0096 78.7364 98.8861 78.8315C98.1117 77.9855 97.3981 77.2346 97.2699 77.0315C97.2041 76.9268 97.14 76.822 97.0758 76.7173C97.0646 76.6996 97.055 76.6835 97.0438 76.6657C96.9973 76.5739 96.9508 76.4853 96.9027 76.3934C96.8963 76.3805 96.8882 76.366 96.8818 76.3531C96.8738 76.2484 96.8658 76.1436 96.8594 76.0389C96.9444 75.8343 97.0309 75.6312 97.1175 75.4282C97.0534 75.2687 96.9877 75.1091 96.9235 74.9496C97.0053 74.6289 97.0871 74.3083 97.1704 73.9892C98.2945 72.0974 99.4185 70.2056 100.543 68.3122C101.076 67.3937 101.612 66.4752 102.148 65.5567C102.213 65.1845 102.277 64.8107 102.343 64.4384C102.454 64.3627 102.566 64.2853 102.677 64.2096C102.799 64.1887 102.933 64.1597 103.078 64.1274C103.174 64.1049 103.275 64.0807 103.381 64.0549C103.488 64.0275 103.599 63.9985 103.713 63.9679C103.77 63.9534 103.83 63.9373 103.889 63.9212C103.948 63.9051 104.009 63.8889 104.07 63.8712C104.317 63.8035 104.58 63.7294 104.854 63.6505C104.992 63.6102 105.135 63.5699 105.279 63.528C105.435 63.4845 105.593 63.4377 105.755 63.3926C105.893 63.3523 106.034 63.3137 106.179 63.2718C106.496 63.1831 106.825 63.0929 107.16 63.0011C107.288 62.9672 107.418 62.9334 107.55 62.8995C107.673 62.8673 107.796 62.8367 107.92 62.8045C107.994 62.7867 108.067 62.7674 108.141 62.7497C108.398 62.6868 108.658 62.624 108.919 62.5644C109.09 62.5257 109.264 62.4886 109.437 62.4516C109.621 62.4129 109.807 62.3742 109.992 62.3388C110.009 62.3355 110.025 62.3339 110.041 62.3291L111.074 62.9511Z" fill="#01646A"/>
  <path d="M110.34 54.4506C110.356 54.0251 110.786 53.7077 111.153 53.8688C111.521 54.0284 111.368 54.4699 111.368 54.4699C111.288 54.1331 111.126 53.9736 110.905 54.0461C110.684 54.1186 110.587 54.2217 110.587 54.2862C110.587 54.3506 111.073 54.4151 111.025 54.5666C110.977 54.718 110.626 54.3426 110.571 54.4779C110.517 54.6133 110.531 54.8937 110.579 55.0226C110.627 55.1515 110.324 54.8921 110.34 54.4506Z" fill="#002238"/>
  <path d="M86.791 82.7725C86.8391 83.0931 86.8872 83.4154 86.9337 83.7361L86.3356 84.4193L78.9212 88.1981L74.135 89.8417L74.2632 90.2929L75.1916 91.2726C74.7427 90.9874 74.2921 90.7006 73.8431 90.4153C73.678 90.0286 73.5128 89.6419 73.3477 89.2551C75.6358 88.1723 77.9255 87.0878 80.2152 86.0049C82.0865 85.2572 83.9593 84.5112 85.8305 83.7635C85.9235 83.6217 86.0149 83.4815 86.1079 83.3397C86.3356 83.1511 86.5633 82.961 86.791 82.7725Z" fill="#152133"/>
  <path d="M75.4937 98.3805L75.2356 99.4151L75.7118 100.786H75.0271C74.9742 100.73 74.9197 100.675 74.8652 100.619C74.8107 100.556 74.7561 100.495 74.7016 100.433C74.6439 100.174 74.5862 99.9162 74.5285 99.6584C74.5236 99.3345 74.5204 99.0106 74.5156 98.6851C74.5413 98.6029 74.5653 98.5191 74.591 98.4353C75.9667 96.8207 77.3441 95.2045 78.7199 93.5898L78.6205 94.6018L75.4937 98.3805Z" fill="#152133"/>
</svg>